<?xml version="1.0" encoding="UTF-8"?>
<svg id="Layer_2" data-name="Layer 2" xmlns="http://www.w3.org/2000/svg" viewBox="0 0 102.22 94.36">
  <defs>
    <style>
      .cls-1 {
        fill: #c0c8d8;
        stroke: #98edd5;
        stroke-linecap: round;
        stroke-linejoin: round;
        stroke-width: 6px;
      }
    </style>
  </defs>
  <g id="Layer_1-2" data-name="Layer 1">
    <g id="sun">
      <g id="sunrays">
        <path class="cls-1" d="M52.85,3l-.44,17.02h.09c.64-5.59.37-11.36.35-17.02Z"/>
        <path class="cls-1" d="M89.18,14.45l-14.18,13.31c4.67-4.2,10.06-8.47,14.18-13.31Z"/>
        <path class="cls-1" d="M82.31,46.64l9.99.52c-3.31-.32-6.61-.7-9.99-.52Z"/>
        <path class="cls-1" d="M92.3,47.15c2.29.22,4.59.41,6.92.36l-6.92-.36Z"/>
        <path class="cls-1" d="M27.55,26.78l-13.96-12.76c.05.15.12.22.22.33,4.41,4.19,8.94,8.57,13.75,12.43Z"/>
        <path class="cls-1" d="M20.89,47.84l-13.92-.42c4.64.26,9.27.81,13.92.42Z"/>
        <path class="cls-1" d="M6.97,47.41c-1.32-.07-2.65-.13-3.97-.12l3.97.12Z"/>
        <path class="cls-1" d="M26.37,76.84c-1.16,2.21-3.54,3.96-4.17,6.35l10.33-15.39c-2.64,2.46-4.33,5.9-6.16,9.04Z"/>
        <path class="cls-1" d="M32.65,67.67s.01-.06.02-.09l-.14.21s.08-.08.12-.12Z"/>
        <path class="cls-1" d="M52.3,84.82l.66,6.55c0-2.22-.31-4.39-.66-6.55Z"/>
        <path class="cls-1" d="M52.3,84.82l-.97-9.6c-.17,3.27.45,6.43.97,9.6Z"/>
        <path class="cls-1" d="M86.45,81.55l-11.89-12.98c3.2,4.8,7.34,9.35,11.89,12.98Z"/>
      </g>
      <path id="sun_core" data-name="sun core" class="cls-1" d="M45.09,30.12c-4.75,1.06-8.59,3.65-10.43,8.31-6.89,12.33.4,24.31,13.83,26.36,8.78,1.91,16.19.18,20.99-7.76,4.8-7.8-.27-17.15-5.98-23-4.95-4.52-12.04-5.92-18.41-3.91Z"/>
    </g>
  </g>
</svg>