<?xml version="1.0" encoding="UTF-8"?>
<svg xmlns="http://www.w3.org/2000/svg" viewBox="0 0 152.86 115.5">
  <defs>
    <style>
      .svg-cloud {
      fill: #FFFBF4;
      stroke: #161616;
      stroke-linecap: round;
      stroke-linejoin: round;
      stroke-width: 6px;
      }

        .svg-raindrop {
      fill: #FFFBF4;
      stroke: #72B1FB;
      stroke-linecap: round;
      stroke-linejoin: round;
      stroke-width: 6px;
      }

    </style>
  </defs>
  <g>
    <g>
      <g class="svg-raindrop">
        <path d="M100.44,88c-1.3.77-18.18,10.94-16.46,19.26.11.51.77,3.71,3.23,4.84,2.71,1.24,5.95-.77,6.93-1.38,7.92-4.91,6.5-20.77,6.3-22.72Z"/>
        <path d="M134.11,88c-1.3.77-18.18,10.94-16.46,19.26.11.51.77,3.71,3.23,4.84,2.71,1.24,5.95-.77,6.93-1.38,7.92-4.91,6.5-20.77,6.3-22.72Z"/>
        <path d="M66.78,88c-1.3.77-18.18,10.94-16.46,19.26.11.51.77,3.71,3.23,4.84,2.71,1.24,5.95-.77,6.93-1.38,7.92-4.91,6.5-20.77,6.3-22.72Z"/>
        <path d="M33.11,88c-1.3.77-18.18,10.94-16.46,19.26.11.51.77,3.71,3.23,4.84,2.71,1.24,5.95-.77,6.93-1.38,7.92-4.91,6.5-20.77,6.3-22.72Z"/>
      </g>
      <path class="svg-cloud" d="M148.21,69.37c-3.53,5.45-11.8,5.05-30.03,4.62-14.67-.34-29.34-.42-44.01-.63-40.22-.57-53.08,5.79-63.49-4.41-1.23-1.2-9.01-8.82-7.48-17.98,1.09-6.53,6.37-10.54,6.9-10.93,2.45-1.8,4.95-2.67,6.95-3.08-2.23-7.84,5.04-15.41,13.99-16.36,1.7-.23,3.25.01,4.7.52.13-16.42,25.4-21.63,38.03-15.83,6.73,3.49,11.4,7.84,13.92,14,9.07-3.75,16.4-.1,20.5,8.93,5.12-1.7,10.75-1,15.12,2.06,4.38,3.06,6.08,7.5,6.74,10.7,3.42.51,8.79,2.05,13.16,6.61,5.67,5.93,8.76,16,5,21.78Z"/>
    </g>
  </g>
</svg>