<?xml version="1.0" encoding="UTF-8"?>
<svg id="Layer_2" data-name="Layer 2" xmlns="http://www.w3.org/2000/svg" viewBox="0 0 164.64 137.12">
  <defs>
    <style>
      .cls-1 {
        stroke: #0049ff;
      }

      .cls-1, .cls-2, .cls-3 {
        fill: #c0c8d8;
        stroke-linecap: round;
        stroke-linejoin: round;
        stroke-width: 6px;
      }

      .cls-2 {
        stroke: #98edd5;
      }

      .cls-3 {
        stroke: #a4e55a;
      }
    </style>
  </defs>
  <g id="Layer_1-2" data-name="Layer 1">
    <g id="cloud_and_sun" data-name="cloud and sun">
      <g id="sun">
        <g id="sunrays">
          <path class="cls-2" d="M122.48,3l-2.99,16.76h.09c1.47-5.42,2.07-11.16,2.9-16.76Z"/>
          <path class="cls-2" d="M156.68,19.78l-16.02,11.03c5.25-3.45,11.22-6.86,16.02-11.03Z"/>
          <path class="cls-2" d="M145.05,50.56l9.8,2.01c-3.22-.81-6.43-1.68-9.8-2.01Z"/>
          <path class="cls-2" d="M154.85,52.57c2.24.56,4.48,1.09,6.79,1.39l-6.79-1.39Z"/>
          <path class="cls-2" d="M93.89,22.71l-11.89-14.72c.03.15.08.24.17.36,3.73,4.8,7.55,9.81,11.72,14.36Z"/>
          <path class="cls-2" d="M84.15,42.53l-13.7-2.51c4.55.95,9.04,2.19,13.7,2.51Z"/>
          <path class="cls-2" d="M70.45,40.02c-1.3-.27-2.6-.52-3.91-.72l3.91.72Z"/>
          <path class="cls-2" d="M85.21,72.02c-1.48,2.01-4.1,3.38-5.07,5.65l12.52-13.66c-2.98,2.03-5.17,5.19-7.45,8.01Z"/>
          <path class="cls-2" d="M92.8,63.9s.02-.06.03-.08l-.17.19s.09-.07.14-.1Z"/>
          <path class="cls-2" d="M109.65,83.81l-.33,6.57c.34-2.19.36-4.38.33-6.57Z"/>
          <path class="cls-2" d="M109.65,83.81l.48-9.64c-.66,3.21-.52,6.42-.48,9.64Z"/>
          <path class="cls-2" d="M143.91,85.7l-9.81-14.62c2.45,5.23,5.86,10.34,9.81,14.62Z"/>
        </g>
        <path id="sun_core" data-name="sun core" class="cls-2" d="M110.74,28.64c-4.85.33-9.04,2.32-11.56,6.65-8.66,11.16-3.25,24.09,9.72,28.14,8.4,3.21,15.97,2.61,21.91-4.52,5.91-6.99,2.3-16.99-2.46-23.64-4.21-5.21-11.01-7.66-17.62-6.63Z"/>
      </g>
      <g id="water">
        <path class="cls-3" d="M100.44,109.62c-1.3.77-18.18,10.94-16.46,19.26.11.51.77,3.71,3.23,4.84,2.71,1.24,5.95-.77,6.93-1.38,7.92-4.91,6.5-20.77,6.3-22.72Z"/>
        <path class="cls-3" d="M134.11,109.62c-1.3.77-18.18,10.94-16.46,19.26.11.51.77,3.71,3.23,4.84,2.71,1.24,5.95-.77,6.93-1.38,7.92-4.91,6.5-20.77,6.3-22.72Z"/>
        <path class="cls-3" d="M66.78,109.62c-1.3.77-18.18,10.94-16.46,19.26.11.51.77,3.71,3.23,4.84,2.71,1.24,5.95-.77,6.93-1.38,7.92-4.91,6.5-20.77,6.3-22.72Z"/>
        <path class="cls-3" d="M33.11,109.62c-1.3.77-18.18,10.94-16.46,19.26.11.51.77,3.71,3.23,4.84,2.71,1.24,5.95-.77,6.93-1.38,7.92-4.91,6.5-20.77,6.3-22.72Z"/>
      </g>
      <path id="cloud" class="cls-1" d="M148.21,90.99c-3.53,5.45-11.8,5.05-30.03,4.62-14.67-.34-29.34-.42-44.01-.63-40.22-.57-53.08,5.79-63.49-4.41-1.23-1.2-9.01-8.82-7.48-17.98,1.09-6.53,6.37-10.54,6.9-10.93,2.45-1.8,4.95-2.67,6.95-3.08-2.23-7.84,5.04-15.41,13.99-16.36,1.7-.23,3.25.01,4.7.52.13-16.42,25.4-21.63,38.03-15.83,6.73,3.49,11.4,7.84,13.92,14,9.07-3.75,16.4-.1,20.5,8.93,5.12-1.7,10.75-1,15.12,2.06,4.38,3.06,6.08,7.5,6.74,10.7,3.42.51,8.79,2.05,13.16,6.61,5.67,5.93,8.76,16,5,21.78Z"/>
    </g>
  </g>
</svg>