<?xml version="1.0" encoding="UTF-8"?>
<svg xmlns="http://www.w3.org/2000/svg" viewBox="0 0 152.86 143.52">
  <defs>
    <style>
      .svg-sun {
      fill: #FFFBF4;
      stroke: #FFA825;
      stroke-linecap: round;
      stroke-linejoin: round;
      stroke-width: 6px;
      }

      .svg-cloud {
      fill: #FFFBF4;
      stroke: #161616;
      stroke-linecap: round;
      stroke-linejoin: round;
      stroke-width: 6px;
      }
    </style>
  </defs>
  <g>
    <g>
      <path class="svg-sun" d="M65.3,72.71l-9.75,13.11c7.42,1.97,14.85,3.94,22.27,5.91-7.99,8.05-15.98,16.1-23.98,24.15,3.89,2.36,7.78,4.73,11.67,7.09-3.53,5.85-7.07,11.71-10.6,17.56,9.58-6.42,19.17-12.84,28.75-19.26l-11.72-7.24c9.02-8.22,18.04-16.44,27.05-24.65-5.05-2.87-10.11-5.75-15.16-8.62,1.83-2.34,3.67-4.68,5.5-7.02.05,0,.09-.01.14-.02-8.06-.33-16.12-.66-24.19-.99Z"/>
      <path class="svg-cloud" d="M148.21,69.37c-3.53,5.45-11.8,5.05-30.03,4.62-14.67-.34-29.34-.42-44.01-.63-40.22-.57-53.08,5.79-63.49-4.41-1.23-1.2-9.01-8.82-7.48-17.98,1.09-6.53,6.37-10.54,6.9-10.93,2.45-1.8,4.95-2.67,6.95-3.08-2.23-7.84,5.04-15.41,13.99-16.36,1.7-.23,3.25.01,4.7.52.13-16.42,25.4-21.63,38.03-15.83,6.73,3.49,11.4,7.84,13.92,14,9.07-3.75,16.4-.1,20.5,8.93,5.12-1.7,10.75-1,15.12,2.06,4.38,3.06,6.08,7.5,6.74,10.7,3.42.51,8.79,2.05,13.16,6.61,5.67,5.93,8.76,16,5,21.78Z"/>
    </g>
  </g>
</svg>