<?xml version="1.0" encoding="UTF-8"?>
<svg xmlns="http://www.w3.org/2000/svg" viewBox="0 0 79.73 79.73">
  <defs>
    <style>
      .svg-snowflake {
        fill: none;
        stroke: #72B1FB;
        stroke-linecap: round;
        stroke-linejoin: round;
        stroke-width: 6px;
      }
    </style>
  </defs>
  <g>
    <g class="svg-snowflake" >
      <path d="M41.08,31.5c-11.92-.78-12.25,15.96-.76,16.12,10.6.05,11.84-15.12.76-16.12Z"/>
      <g>
        <g>
          <path d="M38.84,50.84c-1.02,8.61,1.27,17.23,1.02,25.89"/>
          <path d="M48.81,74.69c-3.35-1.95-6.5-5.44-9.87-7.75-2.56,2.63-4.89,5.81-8.02,7.75"/>
        </g>
        <g>
          <path d="M31.39,46.9c-6.81,5.36-11.28,13.09-17.59,19.03"/>
          <path d="M21.56,70.82c-.99-3.74-.74-8.44-1.5-12.46-3.67.05-7.56.65-11.15-.19"/>
        </g>
        <g>
          <path d="M28.89,38.85c-8.61-1.02-17.23,1.27-25.89,1.02"/>
          <path d="M5.04,48.81c1.95-3.35,5.44-6.5,7.75-9.87-2.63-2.56-5.81-4.89-7.75-8.02"/>
        </g>
        <g>
          <path d="M32.82,31.39c-5.36-6.81-13.09-11.28-19.03-17.59"/>
          <path d="M8.91,21.56c3.74-.99,8.44-.74,12.46-1.5-.05-3.67-.65-7.56.19-11.15"/>
        </g>
        <g>
          <path d="M40.88,28.89c1.02-8.61-1.27-17.23-1.02-25.89"/>
          <path d="M30.92,5.04c3.35,1.95,6.5,5.44,9.87,7.75,2.56-2.63,4.89-5.81,8.02-7.75"/>
        </g>
        <g>
          <path d="M48.34,32.82c6.81-5.36,11.28-13.09,17.59-19.03"/>
          <path d="M58.16,8.91c.99,3.74.74,8.44,1.5,12.46,3.67-.05,7.56-.65,11.15.19"/>
        </g>
        <g>
          <path d="M50.84,40.88c8.61,1.02,17.23-1.27,25.89-1.02"/>
          <path d="M74.69,30.92c-1.95,3.35-5.44,6.5-7.75,9.87,2.63,2.56,5.81,4.89,7.75,8.02"/>
        </g>
        <g>
          <path d="M46.9,48.34c5.36,6.81,13.09,11.28,19.03,17.59"/>
          <path d="M70.82,58.17c-3.74.99-8.44.74-12.46,1.5.05,3.67.65,7.56-.19,11.15"/>
        </g>
      </g>
    </g>
  </g>
</svg>