<?xml version="1.0" encoding="UTF-8"?>
<svg id="Layer_2" data-name="Layer 2" xmlns="http://www.w3.org/2000/svg" viewBox="0 0 131.41 183.38">
  <defs>
    <style>
      .cls-1 {
        fill: none;
        stroke: #0049ff;
      }

      .cls-1, .cls-2, .cls-3 {
        stroke-linecap: round;
        stroke-linejoin: round;
        stroke-width: 6px;
      }

      .cls-2 {
        fill: #98edd5;
      }

      .cls-2, .cls-3 {
        stroke: #98edd5;
      }

      .cls-3 {
        fill: #c0c8d8;
      }
    </style>
  </defs>
  <g id="Layer_1-2" data-name="Layer 1">
    <g>
      <g>
        <path class="cls-1" d="M125.61,3v14.8c0,3.46-.61,7.58.48,10.91.88,2.71,1.1,5.52,1.49,8.31s.65,5.45.65,8.38v42.02c0,2.57.49,5.86-.15,8.35-1.34,5.19-.51,11.75-.51,17.23v8.49c0,2.12.37,4.62.03,6.7-.25,1.53-.7,2.66-.69,4.29,0,1.13,0,2.27,0,3.4,0,2.3.34,4.89.03,7.17-.28,2.1-.69,3.61-.69,5.81,0,1.52,0,3.03,0,4.55,0,3.07.4,6.43-.15,9.44-1.01,5.64-.51,11.75-.51,17.54"/>
        <path class="cls-1" d="M109.64,47.34c2.66-6.26,8.45-11.21,12.49-16.82,1.18-1.95,3.3-3.74,3.31-5.98-8.74-3.99-18.27-7.24-26.62-11.91"/>
      </g>
      <g>
        <path class="cls-2" d="M38.38,77.37c-1.18.49-2.21.91-3.11,1.29-1.69.7-2.91,1.23-3.69,1.6-2.09.98-9.22,4.34-15.69,5.36,2.64-3.91,2.21-9.17-.98-12.44-2.31-2.36-5.7-3.32-8.93-2.69,1.67-1.54,3.7-2.5,5.17-3.21,5.1-2.48,9.81-5.69,14.57-8.79,2.77.69,8.14,2.73,11.1,8.37,2.13,4.06,1.99,8.03,1.56,10.51Z"/>
        <path class="cls-3" d="M15.89,85.62h-.01c-2.82.44-5.53.45-7.63-.39-.55-.22-2.27-.91-3.59-2.62-1.96-2.58-1.98-6.12-1.1-8.56.53-1.45,1.4-2.62,2.42-3.56,3.23-.63,6.62.33,8.93,2.69,3.19,3.27,3.62,8.53.98,12.44Z"/>
        <path class="cls-2" d="M87.16,57.84c-.44.18-.89.37-1.34.55-.27.11-.55.23-.82.34-8.6,3.52-9.32,3.61-17.79,7.02-1.25.5-2.46.99-3.63,1.45.77-3.98.98-9.56-1.5-15.46-2.24-5.31-5.77-8.78-8.44-10.82,6.18-4.64,8.67-7.37,12.86-10.91.97-.81,2.02-1.66,3.16-2.53,2.7.72,5.89,2.05,8.85,4.51,6.96,5.77,10.05,15.56,8.65,25.85Z"/>
        <path class="cls-3" d="M63.58,67.2c-.66.27-1.3.53-1.93.78-10.68,4.29-18.26,7.33-23.27,9.39.43-2.48.57-6.45-1.56-10.51-2.96-5.64-8.33-7.68-11.1-8.37,2.29-1.5,4.6-2.97,6.97-4.32,7.91-4.52,13.4-7.66,20.01-12.54.32-.24.64-.47.94-.71,2.67,2.04,6.2,5.51,8.44,10.82,2.48,5.9,2.27,11.48,1.5,15.46Z"/>
        <path class="cls-3" d="M108.15,48.75c-4.94,2.23-12.14,5.43-20.99,9.09,1.4-10.29-1.69-20.08-8.65-25.85-2.96-2.46-6.15-3.79-8.85-4.51,6.21-4.74,15.19-10.23,28.04-14.86,10.79,7.38,18.2,24.02,10.45,36.13Z"/>
      </g>
    </g>
  </g>
</svg>