<svg width="275" height="175" viewBox="0 0 275 175" fill="none" xmlns="http://www.w3.org/2000/svg">
<path d="M86.5823 36.3221C84.4188 36.3221 82.1946 36.7327 80.1115 37.3717C75.9259 38.6558 71.3293 41.4178 67.9285 44.3637C61.6098 49.8372 58.8916 56.7805 59.0033 65.388C59.0394 68.1705 60.5969 69.8252 61.9635 71.9763C63.7846 74.8427 66.2695 77.4042 68.9103 79.4042C75.5487 84.4317 83.2816 83.9901 91.0003 83.9901C95.3147 83.9901 98.7293 82.9515 102.529 80.7929C105.49 79.1106 109.21 75.6328 110.933 72.493C114.667 65.6897 114.538 57.5278 112.942 49.9669C111.476 43.0261 107.407 38.1517 101.145 35.8861C98.481 34.922 95.1622 34.3945 92.354 34.2875C90.2871 34.2088 88.2409 33.5326 86.3146 34.5782" stroke="#FFA825" stroke-width="6" stroke-linecap="round"/>
<path d="M52.6728 59.9874C54.2987 59.9874 49.4206 60.0158 47.7948 59.9874C46.8308 59.9706 45.9613 59.4893 45.0163 59.3235C43.895 59.1268 42.7829 59.2199 41.682 58.9011C38.2171 57.8976 34.4843 57.8514 31 57" stroke="#FFA825" stroke-width="6" stroke-linecap="round"/>
<path d="M60 40C56.9444 36.2602 53.719 32.3592 50.8222 28.3385C49.8528 26.9929 47.8021 22.6535 46 22" stroke="#FFA825" stroke-width="6" stroke-linecap="round"/>
<path d="M84 28C82.7762 27.8464 81.3639 22.1001 81.1333 21.2062C80.1904 17.5508 79.9262 13.9652 79.35 10.2624C79.0032 8.03422 79.2987 4.95583 78 3" stroke="#FFA825" stroke-width="6" stroke-linecap="round"/>
<path d="M107 31C107.095 29.7844 107.705 28.6466 108.173 27.5598C109.048 25.5295 109.618 23.4689 110.364 21.4003C111.262 18.9115 111.993 15.9563 113.389 13.7336C114.533 11.9118 116.343 10.0914 117 8" stroke="#FFA825" stroke-width="6" stroke-linecap="round"/>
<path d="M121 51.0537C123.966 51.0537 126.998 50.7616 129.905 51.5403C133.938 52.6205 137.875 53 142 53" stroke="#FFA825" stroke-width="6" stroke-linecap="round"/>
<path d="M119 76C120.89 77.9545 123.722 78.6577 125.886 80.1199C127.765 81.3902 129.41 82.7581 131.143 84.2727C132.533 85.4881 136.417 86.9915 137 89" stroke="#FFA825" stroke-width="6" stroke-linecap="round"/>
<path d="M89 91C89 95.0083 90 98.7517 90 102.774C90 104.849 90 106.925 90 109" stroke="#FFA825" stroke-width="6" stroke-linecap="round"/>
<path d="M60.6844 86C61.9793 86.7275 58.8947 91.5147 58.5323 92.2092C57.2056 94.7512 56.5122 97.6565 54.9843 100.052C53.6815 102.095 52.2259 103.934 51 106" stroke="#FFA825" stroke-width="6" stroke-linecap="round"/>
<path d="M124 41.6952C124.228 39.653 128.589 39.0877 130.075 38.5554C134.033 37.137 138.674 37.0901 142.832 37.0901C145.737 37.0901 149.079 36.5945 151.757 37.9274C153.765 38.927 156.185 41.1874 157.551 42.9511C159.029 44.8574 160.533 46.767 162.061 48.626C163.51 50.3897 164.057 52.6006 165.005 54.6963C165.678 56.1865 165.838 57.6989 166.15 59.2781C166.479 60.9494 167.354 62.41 167.645 64.1157C168.033 66.39 169 68.6984 169 71" stroke="#161616" stroke-width="6" stroke-linecap="round"/>
<path d="M160 64.6877C160 62.8728 165.154 62.7544 166.333 62.5285C172.465 61.3532 178.467 59.6185 184.617 58.5424C188.96 57.7827 194.928 57.6371 199.056 59.3254C203.627 61.1949 206.533 64.7295 210.248 67.7721C218.997 74.9368 228.734 85.654 226.737 98" stroke="#161616" stroke-width="6" stroke-linecap="round"/>
<path d="M211.126 97.3644C211.126 89.4186 227.202 89.0951 232.875 89.0045C236.906 88.9402 239.315 89.5448 242.645 91.8133C246.382 94.3585 250.096 96.9313 253.167 100.195C256.3 103.525 259.553 106.95 262.069 110.723C264.348 114.14 265.933 117.797 267.964 121.338C270.348 125.496 271.734 129 271.98 133.745C272.204 138.067 270.496 140.052 268.481 143.764C264.728 150.675 259.41 154.594 251.758 157.476C242.793 160.853 233.582 163.78 223.95 164.797C214.476 165.796 205.246 167.535 195.859 169.021C188.943 170.115 182.048 169.776 175.12 170.458C171.876 170.778 168.675 171.509 165.42 171.719C160.967 172.006 156.447 171.807 151.986 171.807C133.979 171.807 115.973 171.807 97.966 171.807C89.0958 171.807 80.2256 171.807 71.3554 171.807C65.5384 171.807 59.4003 172.342 53.6228 171.63C44.4001 170.495 35.1687 168.406 26.9417 164.155C19.9763 160.556 11.0058 156.526 6.69607 149.912C2.40557 143.328 2.93772 135.953 3.12606 128.504C3.20764 125.278 4.62666 121.971 5.23988 118.795C5.96662 115.031 7.32466 112.121 10.2191 109.396C12.692 107.067 15.6228 104.718 18.7918 103.314C21.507 102.111 24.6463 101.673 27.1296 100.063C30.092 98.142 32.2147 97.7625 35.6789 97.7625C36.8612 97.7625 39.7578 97.8806 40.3293 98.9568" stroke="#161616" stroke-width="6" stroke-linecap="round"/>
<path d="M32.3386 107C30.2553 100.301 30.5524 92.6316 33.5911 86.3778C34.8257 83.8369 37.284 81.465 39.2491 79.4889C40.652 78.078 42.4358 76.0731 44 75" stroke="#161616" stroke-width="6" stroke-linecap="round"/>
</svg>
