<?xml version="1.0" encoding="UTF-8"?>
<svg id="Layer_2" data-name="Layer 2" xmlns="http://www.w3.org/2000/svg" version="1.1" viewBox="0 0 93.5 97">
  <defs>
    <style>
      .cls-1 {
        fill: none;
        stroke: #fffbf4;
        stroke-linecap: round;
        stroke-linejoin: round;
        stroke-width: 13px;
      }
    </style>
  </defs>
  <g id="Layer_1-2" data-name="Layer 1-2">
    <path class="cls-1" d="M85.6,44.5c-.5,1-1.5,2.8-4.9,5.9-4,3.6-9.4,9.4-18,9.6-4,0-8.1.8-11.8-1-2.5-.3-4.6-2-6.7-3.3-1-1.3-2-2.5-3.1-3.7-2.3-2.3-3.2-4.4-4.2-7.5-1.5-5-2.7-10.4-2.2-15.6.9-4.9,3.6-9.4,6.8-13.1,2.4-3.8,5.6-6.8,9.9-8.3,1.7-.8,3.5-.9,5.4-.9,4.3,0,8.8-.3,13,.7,2.6.7,4.7,2.5,6.6,4.2,1.3,1.1,3.8,3,5.9,5.9,3.9,5.5,4.3,11.3,4.6,16.5.3,4.2.4,7.3-1.2,10.7h0Z"/>
    <path class="cls-1" d="M6.5,90.5c7.6-8.2,14.8-16.8,22.6-24.9,4.7-4,8.5-8.9,12.1-13.6"/>
  </g>
</svg>