<?xml version="1.0" encoding="UTF-8"?>
<svg id="Layer_2" data-name="Layer 2" xmlns="http://www.w3.org/2000/svg" viewBox="0 0 93.51 97.03">
  <defs>
    <style>
      .cls-1 {
        fill: none;
      }

      .cls-1, .cls-2 {
        stroke: #473b2f;
        stroke-linecap: round;
        stroke-linejoin: round;
        stroke-width: 13px;
      }

      .cls-2 {
        fill: #fffbf4;
      }
    </style>
  </defs>
  <g id="Layer_1-2" data-name="Layer 1">
    <path class="cls-2" d="M85.62,44.46c-.46.95-1.49,2.85-4.94,5.92-4,3.56-9.43,9.38-18.04,9.56-3.97.08-8.12.82-11.79-1.02-2.52-.28-4.56-2.04-6.66-3.28-.97-1.26-1.99-2.53-3.07-3.7-2.3-2.29-3.23-4.44-4.23-7.46-1.5-5.02-2.73-10.35-2.21-15.62.91-4.86,3.59-9.35,6.78-13.05,2.39-3.8,5.63-6.85,9.92-8.33,1.69-.83,3.54-.95,5.39-.95,4.34.08,8.75-.35,13.01.69,2.57.68,4.67,2.45,6.63,4.15,1.26,1.09,3.78,3.02,5.86,5.93,3.91,5.48,4.26,11.27,4.58,16.5.26,4.22.4,7.26-1.23,10.67Z"/>
    <path class="cls-1" d="M6.5,90.53c7.56-8.25,14.78-16.8,22.57-24.88,4.67-3.99,8.48-8.93,12.08-13.56"/>
  </g>
</svg>