<svg width="28" height="31" viewBox="0 0 28 31" fill="none" xmlns="http://www.w3.org/2000/svg">
<path fill-rule="evenodd" clip-rule="evenodd" d="M13.0271 2.112C13.0284 2.04039 13.0243 1.96784 13.0142 1.89473C12.8949 1.02658 11.9918 0.407256 10.9971 0.511434C9.35056 0.683888 7.49104 1.07761 5.77687 1.76328C4.07255 2.445 2.39599 3.46288 1.28632 4.94117C0.108328 6.51046 -0.368209 8.44015 0.314171 10.1186C1.05467 11.94 2.9847 13.0467 5.54752 13.0467C7.6274 13.0467 9.1049 12.1316 10.0989 11.0128C11.0423 9.95083 11.6168 8.64033 12.0178 7.59972C12.161 7.22837 12.2376 6.72031 12.2901 6.36092C12.3135 6.20133 12.335 6.04548 12.3564 5.89071C12.3949 5.61317 12.4328 5.33911 12.4796 5.05326C12.5518 4.61198 12.627 4.26612 12.7069 4.03464C12.71 4.02567 12.713 4.01723 12.7158 4.0093C13.2602 3.54097 13.4246 2.80267 13.0643 2.17364C13.0523 2.15276 13.0399 2.13222 13.0271 2.112ZM8.98008 4.09421C8.40136 4.24308 7.83017 4.42505 7.28831 4.6418C5.96685 5.17038 4.93484 5.85851 4.32086 6.67645C3.59123 7.64845 3.52434 8.54612 3.73314 9.05969C3.88381 9.43031 4.27957 9.88029 5.54752 9.88029C6.23182 9.88029 6.73756 9.62901 7.23193 9.07253C7.77681 8.45921 8.19577 7.58546 8.57931 6.59023C8.57773 6.59434 8.57692 6.59653 8.57683 6.59651C8.57641 6.5964 8.59032 6.552 8.61277 6.43824C8.63735 6.31374 8.6629 6.15546 8.69147 5.96003C8.70871 5.84219 8.72743 5.70728 8.74748 5.56274C8.78909 5.26294 8.83643 4.92174 8.88815 4.60562C8.915 4.44152 8.94524 4.26909 8.98008 4.09421Z" fill="#72B1FB"/>
<path fill-rule="evenodd" clip-rule="evenodd" d="M27.4344 2.69367C27.4858 2.52141 27.5046 2.33859 27.4851 2.15109C27.3944 1.2803 26.512 0.638561 25.5144 0.717724C23.8373 0.850793 22.6421 1.68616 21.8288 2.3315C21.4299 2.64803 21.0082 2.97337 20.5757 3.30709C19.5029 4.13488 18.3633 5.01423 17.3378 5.93864C16.574 6.62712 15.8914 7.64318 15.6601 8.73592C15.4181 9.87944 15.66 11.3165 17.1398 12.2939C20.067 14.2273 24.4761 13.2871 26.1405 10.527C27.5453 8.19731 27.5206 5.92283 27.498 3.85244C27.4953 3.59598 27.4925 3.34265 27.4925 3.09274C27.4925 2.95489 27.4723 2.82116 27.4344 2.69367ZM23.8673 4.99109C23.5261 5.25826 23.1911 5.51667 22.8619 5.77057C21.8361 6.56178 20.8671 7.30917 19.9441 8.14123C19.6079 8.44427 19.3121 8.91203 19.2276 9.31121C19.1884 9.49627 19.2074 9.60511 19.2243 9.65333C19.2343 9.68212 19.2492 9.71629 19.329 9.76902C20.4279 10.4948 22.2835 10.1246 22.9301 9.05229C23.7087 7.76112 23.8485 6.55277 23.8673 4.99109Z" fill="#72B1FB"/>
<path fill-rule="evenodd" clip-rule="evenodd" d="M11.1136 17.1493C12.1085 17.2518 12.8197 18.0389 12.7022 18.9073C12.6262 19.4688 12.5946 20.0884 12.5618 20.7949C12.5603 20.8259 12.5589 20.8571 12.5574 20.8884C12.5269 21.549 12.4931 22.2782 12.4098 22.9998C12.2378 24.4892 11.8327 26.2138 10.5257 27.6142C9.75017 28.4451 8.54916 29.4499 7.11833 30.0271C5.62132 30.631 3.6385 30.8278 1.87302 29.5698C1.11231 29.0278 0.541392 28.1157 0.251903 27.3046C-0.0130827 26.5622 -0.284529 25.2109 0.66418 24.1399C0.920483 23.8505 1.23182 23.4355 1.63975 22.8906C2.0281 22.3719 2.4828 21.7651 2.97107 21.188C3.45529 20.6157 4.01776 20.0175 4.64365 19.5281C5.25053 19.0536 6.06809 18.561 7.06914 18.415C7.89474 18.2946 8.68316 18.6813 9.01647 19.3148C9.03801 19.053 9.06475 18.7919 9.0994 18.5358C9.21692 17.6675 10.1187 17.0467 11.1136 17.1493ZM8.93167 20.7792C8.66888 21.1687 8.21782 21.4578 7.66705 21.5381C7.6422 21.5417 7.44355 21.5901 7.06434 21.8866C6.70413 22.1682 6.31063 22.5712 5.88944 23.069C5.47231 23.562 5.07218 24.0944 4.6767 24.6227C4.66087 24.6438 4.645 24.665 4.6291 24.6862C4.29951 25.1266 3.95246 25.5903 3.62905 25.9677C3.63107 26.0506 3.65238 26.1858 3.71556 26.3629C3.78445 26.5559 3.88497 26.7473 3.99309 26.9039C4.08452 27.0364 4.15071 27.0999 4.16677 27.1154C4.17151 27.1199 4.17189 27.1203 4.16727 27.117C4.52323 27.3706 4.91272 27.4286 5.59632 27.1528C6.34609 26.8504 7.13395 26.2347 7.71299 25.6143C8.3347 24.9482 8.64919 23.9906 8.80024 22.6823C8.87055 22.0734 8.9007 21.4462 8.93167 20.7792ZM3.63194 25.9082C3.63199 25.9082 3.6318 25.9095 3.63124 25.912C3.63162 25.9094 3.63189 25.9081 3.63194 25.9082Z" fill="#72B1FB"/>
<path fill-rule="evenodd" clip-rule="evenodd" d="M24.404 16.0566C25.3733 15.8359 26.3641 16.3428 26.617 17.1889C27.0754 18.7225 27.7112 20.8996 27.6158 22.959C27.5169 25.097 26.5995 27.3824 23.7049 28.6227C22.4129 29.1763 20.8425 29.3214 19.4529 28.9511C17.9939 28.5623 16.6786 27.5689 16.3436 25.94C15.8852 23.7106 16.81 21.6452 18.1952 20.0533C19.578 18.4643 21.5303 17.2061 23.5022 16.5177C23.5143 16.5135 23.5264 16.5094 23.5385 16.5054C23.7648 16.2944 24.0599 16.1349 24.404 16.0566ZM23.6522 19.9798C22.6889 20.4845 21.7762 21.1733 21.0843 21.9685C20.1114 23.0865 19.6867 24.273 19.9144 25.3806C19.971 25.6557 20.1353 25.8222 20.5123 25.9227C20.9588 26.0417 21.5808 26.0054 22.1062 25.7803C23.3963 25.2275 23.9244 24.2698 23.991 22.8312C24.0326 21.9318 23.8814 20.9567 23.6522 19.9798Z" fill="#72B1FB"/>
</svg>
