<?xml version="1.0" encoding="UTF-8"?>
<svg id="Layer_2" data-name="Layer 2" xmlns="http://www.w3.org/2000/svg" viewBox="0 0 51 158.61">
  <defs>
    <style>
      .cls-1 {
        fill: #a4e55a;
        stroke-width: 0px;
      }

      .cls-2 {
        fill: #c0c8d8;
        stroke: #a4e55a;
        stroke-linecap: round;
        stroke-linejoin: round;
        stroke-width: 6px;
      }
    </style>
  </defs>
  <g id="Layer_1-2" data-name="Layer 1">
    <g>
      <path class="cls-2" d="M33.85,124.63c-.21-35.12,2.91-70.4-.27-105.43-1.05-4.73,1.43-11.03-2.05-14.79-4-2.11-10.99-2.29-12.82,2.67-3.2,16.34.09,34.17-1.45,50.99-.01.84-.03,1.67-.05,2.51s-.04,1.67-.06,2.51-.05,1.67-.08,2.51-.06,1.68-.09,2.51-.07,1.68-.1,2.52-.07,1.68-.11,2.52-.08,1.68-.12,2.52-.08,1.68-.12,2.52-.09,1.68-.13,2.52-.09,1.68-.13,2.52-.09,1.68-.13,2.52-.09,1.68-.13,2.52-.09,1.68-.13,2.52-.09,1.68-.13,2.52-.08,1.68-.13,2.52-.08,1.68-.12,2.52-.08,1.68-.11,2.51-.07,1.67-.1,2.51-.06,1.67-.09,2.51-.06,1.67-.08,2.5-.05,1.67-.07,2.5-.04,1.66-.06,2.5-.03,1.66-.04,2.49-.02,1.66-.02,2.49,0,1.65,0,2.48,0,1.65.02,2.48c0,.22,0,.44,0,.67,0,.06,0,.11,0,.17,0,.02,0,.04,0,.08-.02,0-.04,0-.06,0-.01,0-.02,0-.03.01-.03.01-.05.03-.08.04-.04.01-.08.03-.11.04-.15.05-.31.09-.46.13s-.31.07-.47.09-.32.05-.48.08c-.11.02-.22.04-.33.06-3.17,1.3-5.09,4.44-7.88,6.34-5.33,9.21.36,22.76,11.36,23.83,10.7,1.81,28.49,1.3,31.44-11.75,1.3-8.7-4.57-18.39-13.98-18.46Z"/>
      <path class="cls-1" d="M39.08,139.39c-1.09-5.15-7.55-8.72-12.64-8.8.87-8.38.77-16.9.32-25.32.14-2.11-2.57-1.99-3.89-.83-1.07,8.05,1.01,17.33-.9,25.02-3.29,1.14-7.89,1.9-9.77,4.89-.17,1.03-.6,1.51-.61,2.78-.06,1.98-.93,4.26.31,6.07,1.48,2.18,3.85,3.41,6.43,3.67.59.51,1.23.47,2,.42.02,0,.03,0,.05.02,2.08-.1,4.26.1,6.32-.1.59-.09,3.43.22,3.79-.47,3.33-1.5,9.06-2.74,8.6-7.36Z"/>
    </g>
  </g>
</svg>