<svg width="10" height="35" viewBox="0 0 10 35" fill="none" xmlns="http://www.w3.org/2000/svg">
<path fill-rule="evenodd" clip-rule="evenodd" d="M3.98652 0.0185454C4.10948 0.0244209 4.21958 0.0296816 4.35319 0.0315093C5.22056 0.0433747 6.05611 0.355069 6.6776 0.707705C8.27948 1.61663 8.62372 3.02035 8.8088 4.21174C8.9703 5.25137 9.1253 6.29904 9.26295 7.34487C9.37403 8.18889 9.3479 9.08885 9.32411 9.90821C9.31467 10.2331 9.30561 10.5452 9.30561 10.8362C9.30561 11.1627 9.30905 11.497 9.31254 11.8358C9.32007 12.5679 9.32781 13.3208 9.3015 14.0593C9.26772 15.0076 9.2799 15.9357 9.29236 16.8852C9.29895 17.3869 9.30561 17.8947 9.30561 18.4145C9.30561 18.6316 9.30705 18.8529 9.30852 19.0775C9.31564 20.17 9.32326 21.3393 9.16771 22.4748C9.10049 22.9655 9.03732 23.4607 8.97374 23.9589C8.74621 25.7421 8.51354 27.5657 8.07162 29.3737C7.77464 30.5887 7.45375 31.8588 6.95846 33.0987C6.68302 33.7883 6.05017 34.6529 4.94444 34.9202C4.64683 34.9922 4.25982 35.0093 3.91938 34.9957C3.58471 34.9823 3.18324 34.9349 2.87477 34.8177C2.36329 34.6234 1.83883 34.309 1.45719 33.9546C0.780288 33.326 0.638213 32.6856 0.511655 32.1152C0.503744 32.0796 0.495894 32.0442 0.487977 32.0091C0.216923 30.8077 0.109436 29.6428 0.109436 28.4417C0.109436 26.6247 0.423812 24.8191 0.726342 23.0815C0.822095 22.5315 0.916661 21.9884 0.999697 21.4539C1.07323 20.9805 1.08337 20.4788 1.07194 19.9403C1.06784 19.7472 1.06041 19.5386 1.05278 19.3246C1.04039 18.9769 1.02749 18.6147 1.02749 18.2799V15.0882C1.02749 14.9071 1.02971 14.7344 1.03186 14.5677C1.03783 14.1043 1.04321 13.6866 0.998619 13.2584C0.984493 13.1228 0.967985 12.9806 0.950935 12.8339C0.895651 12.3579 0.834677 11.833 0.830781 11.3208C0.825852 10.6726 0.8275 10.0213 0.829137 9.37426C0.829341 9.29345 0.829545 9.21271 0.829737 9.13205C0.767439 8.94612 0.750632 8.7692 0.746872 8.63095C0.743545 8.50863 0.750207 8.3918 0.755455 8.30525C0.756037 8.29566 0.756598 8.28647 0.757137 8.27763C0.762095 8.19638 0.765185 8.14574 0.765185 8.09934C0.765185 7.8499 0.811049 7.61459 0.842491 7.45328C0.844934 7.44074 0.847291 7.42865 0.849531 7.41704C0.885303 7.23164 0.900539 7.12951 0.896913 7.03844C0.888365 6.82377 0.835686 6.53441 0.764637 6.30348C0.674233 6.00964 0.66874 5.72177 0.675026 5.50263C0.677721 5.40865 0.683286 5.31386 0.68805 5.23271C0.688884 5.2185 0.689694 5.2047 0.690459 5.1914C0.695951 5.09599 0.69961 5.01967 0.69961 4.95071C0.69961 4.7553 0.692773 4.53662 0.685524 4.3048C0.668854 3.77165 0.65001 3.16898 0.707175 2.62001C0.771634 2.001 1.07856 1.4951 1.35466 1.09793C1.36744 1.07954 1.38309 1.05477 1.40189 1.02501C1.5573 0.778995 1.92814 0.191967 2.67343 0.0543306C2.9803 -0.00234139 3.31063 -0.00426866 3.58907 0.00303893C3.75086 0.00728519 3.87407 0.0131724 3.98652 0.0185454ZM2.28877 8.78905C2.28897 8.66436 2.28909 8.53943 2.28909 8.41421C2.28909 8.30621 2.26561 8.2037 2.22348 8.1115C2.22351 8.10744 2.22352 8.10339 2.22352 8.09934C2.22352 7.9975 2.24325 7.89134 2.28145 7.69332L2.28244 7.68821C2.31594 7.51459 2.3652 7.25938 2.35409 6.98042C2.33982 6.62197 2.26088 6.20745 2.15849 5.87464C2.13882 5.8107 2.12792 5.71315 2.13276 5.54444C2.13477 5.47414 2.13886 5.4042 2.14363 5.32252C2.14453 5.30719 2.14545 5.29145 2.14638 5.27521C2.15194 5.17863 2.15794 5.0655 2.15794 4.95071C2.15794 4.65369 2.14896 4.38248 2.14044 4.12539C2.1247 3.65033 2.11055 3.22348 2.15766 2.77106C2.1819 2.53827 2.30327 2.28826 2.55209 1.93033C2.58233 1.88682 2.61131 1.84316 2.63588 1.80611L2.63729 1.80398C2.66261 1.76581 2.6839 1.73372 2.70546 1.70242C2.74931 1.6388 2.78242 1.59612 2.81204 1.56433C2.85958 1.51332 2.88952 1.49742 2.93827 1.48841C3.08812 1.46074 3.29199 1.45408 3.55081 1.46087C3.63477 1.46307 3.74953 1.46805 3.87014 1.47328C4.03473 1.48041 4.21022 1.48802 4.33324 1.4897C4.88443 1.49724 5.47866 1.70415 5.95791 1.97608C6.95285 2.54062 7.19949 3.35248 7.36775 4.4356C7.52824 5.46868 7.68142 6.50437 7.81708 7.53516C7.91226 8.25831 7.89126 8.96686 7.86856 9.73326C7.8581 10.0863 7.84728 10.4516 7.84728 10.8362C7.84728 11.1954 7.85094 11.5469 7.85455 11.894C7.86198 12.6073 7.86922 13.3021 7.8441 14.0073C7.80914 14.9887 7.82199 15.9818 7.83459 16.955C7.84096 17.448 7.84728 17.9358 7.84728 18.4145C7.84728 18.652 7.84869 18.8871 7.8501 19.1202C7.85665 20.2103 7.86293 21.2544 7.72288 22.2769C7.65158 22.7974 7.58584 23.312 7.52067 23.822C7.29458 25.5918 7.07541 27.3074 6.65499 29.0274C6.35711 30.2461 6.05694 31.4243 5.60418 32.5577C5.43661 32.9772 5.09619 33.3832 4.60175 33.5027C4.49112 33.5295 4.25613 33.5497 3.97778 33.5385C3.69366 33.5272 3.47957 33.4875 3.39268 33.4545C3.03665 33.3192 2.67851 33.0986 2.44956 32.886C2.10925 32.5699 2.05476 32.3281 1.92095 31.7343L1.91055 31.6882C1.66682 30.6079 1.56777 29.5523 1.56777 28.4417C1.56777 26.7625 1.85127 25.1318 2.14804 23.4246C2.24751 22.8525 2.34847 22.2717 2.44074 21.6777C2.5339 21.0781 2.54197 20.4761 2.52994 19.9094C2.52479 19.6667 2.51656 19.4412 2.50859 19.223C2.49692 18.9033 2.48582 18.5993 2.48582 18.2799V15.0882C2.48582 14.95 2.48775 14.8043 2.48975 14.6534C2.49619 14.1678 2.50335 13.6282 2.44911 13.1074C2.43097 12.9332 2.4117 12.7668 2.39304 12.6057C2.34022 12.1495 2.29231 11.7358 2.28907 11.3097C2.28422 10.6721 2.2858 10.0374 2.28742 9.39861C2.3756 9.20765 2.37816 8.98413 2.28877 8.78905Z" fill="#FF3F25"/>
<path fill-rule="evenodd" clip-rule="evenodd" d="M3.14642 10.4515C3.14642 10.0487 3.47288 9.72229 3.87559 9.72229H6.54225C6.94496 9.72229 7.27142 10.0487 7.27142 10.4515C7.27142 10.8542 6.94496 11.1806 6.54225 11.1806H3.87559C3.47288 11.1806 3.14642 10.8542 3.14642 10.4515Z" fill="#FF3F25"/>
<path fill-rule="evenodd" clip-rule="evenodd" d="M3.75542 9.72229C4.15813 9.72229 4.48459 10.0487 4.48459 10.4515C4.48459 10.7588 4.52725 11.0988 4.57993 11.4609C4.61388 11.6944 4.61097 11.9302 4.60885 12.101C4.60863 12.1189 4.60842 12.136 4.60826 12.1523C4.60632 12.351 4.61018 12.4709 4.63102 12.5697C4.70226 12.9076 4.70565 13.2547 4.69781 13.5476C4.69389 13.6935 4.68815 13.8143 4.68289 13.925C4.67596 14.0706 4.66986 14.1989 4.66986 14.3441C4.66986 14.3937 4.66983 14.4429 4.6698 14.4917C4.66935 15.1293 4.66896 15.6946 4.74572 16.2663C4.90177 17.4284 4.90162 18.5752 4.90147 19.6864C4.90146 19.7206 4.90146 19.7548 4.90146 19.7889C4.90146 20.1062 4.87268 20.4084 4.84251 20.6825C4.83526 20.7483 4.82803 20.8118 4.821 20.8736C4.7976 21.0792 4.77635 21.266 4.76345 21.4588C4.75195 21.6307 4.75101 21.7975 4.74993 21.9888C4.74965 22.038 4.74936 22.0888 4.74888 22.1416C4.74666 22.3877 4.73998 22.6679 4.69877 22.9606C4.64722 23.3268 4.58403 23.6844 4.52312 24.029C4.50289 24.1434 4.48291 24.2565 4.4637 24.3679C4.39939 24.7409 4.34563 25.0946 4.34563 25.4009C4.34563 25.8123 4.3083 26.218 4.27444 26.5861L4.27309 26.6008C4.23783 26.9841 4.20668 27.3283 4.20668 27.667C4.20668 28.0473 4.19479 28.4234 4.18332 28.7862L4.18315 28.7914C4.17151 29.1596 4.16036 29.5144 4.16036 29.8693C4.16036 30.2137 4.16912 30.5576 4.19151 30.8937C4.20638 30.8387 4.22263 30.7814 4.24042 30.7243C4.32388 30.4566 4.38038 30.2129 4.44291 29.9432C4.48267 29.7717 4.52488 29.5897 4.578 29.3843C4.6258 29.1994 4.66059 29.006 4.69079 28.7949C4.71252 28.643 4.75248 28.4898 4.77917 28.3874C4.78434 28.3676 4.78901 28.3497 4.79296 28.3341C4.82285 28.2156 4.83214 28.157 4.83276 28.1131C4.8375 27.7761 4.89863 27.4584 4.94998 27.2016C4.95434 27.1798 4.95863 27.1584 4.96284 27.1374C5.01192 26.8929 5.04995 26.7034 5.06358 26.5136C5.08805 26.173 5.1449 25.8511 5.19963 25.5616C5.20925 25.5107 5.21874 25.4611 5.22804 25.4124C5.27363 25.1741 5.31456 24.9601 5.34307 24.7396C5.38704 24.3996 5.41788 24.0991 5.44968 23.7892C5.47708 23.5221 5.50521 23.248 5.54306 22.9357C5.7382 21.326 5.69786 19.7226 5.65612 18.0635C5.63824 17.3529 5.62011 16.6322 5.62011 15.8963C5.62011 15.4707 5.6908 15.0159 5.74941 14.6389C5.76913 14.512 5.78748 14.394 5.80131 14.2888C5.83163 14.0582 5.80262 13.8657 5.75538 13.5523C5.74597 13.4898 5.73584 13.4225 5.7253 13.3492C5.66474 12.9276 5.66557 12.5 5.66628 12.1354C5.66635 12.097 5.66643 12.0593 5.66643 12.0223C5.66643 11.8017 5.68524 11.5635 5.701 11.3639C5.70714 11.2861 5.71282 11.2143 5.71674 11.1515C5.72281 11.0545 5.74029 10.9714 5.75666 10.9084C5.77026 10.8561 5.78661 10.8054 5.79563 10.7775C5.7967 10.7741 5.79768 10.7711 5.79853 10.7684C5.8021 10.7573 5.80475 10.7486 5.80667 10.7421C5.82925 10.3598 6.1465 10.0566 6.53455 10.0566C6.93726 10.0566 7.26372 10.3831 7.26372 10.7858C7.26372 10.9768 7.21163 11.1381 7.19018 11.2045C7.18915 11.2077 7.18819 11.2107 7.18731 11.2134C7.17841 11.2412 7.17335 11.2581 7.17068 11.267C7.16387 11.3723 7.15649 11.4643 7.14968 11.5492C7.13609 11.7189 7.12476 11.8602 7.12476 12.0223C7.12476 12.057 7.12473 12.0912 7.1247 12.125C7.12436 12.5084 7.12408 12.8305 7.16881 13.1418C7.17545 13.188 7.18323 13.2376 7.19149 13.2902C7.24076 13.604 7.30687 14.0251 7.2472 14.4789C7.22348 14.6593 7.19821 14.8217 7.17463 14.9731C7.12236 15.309 7.07844 15.5911 7.07844 15.8963C7.07844 16.5517 7.0953 17.2263 7.11245 17.9121C7.15506 19.6166 7.1994 21.3904 6.9908 23.1112C6.96249 23.3447 6.93423 23.6152 6.90516 23.8936C6.86843 24.2451 6.83041 24.6091 6.78936 24.9266C6.75466 25.195 6.70393 25.4596 6.65817 25.6983C6.64941 25.744 6.64084 25.7888 6.63259 25.8324C6.5792 26.1149 6.53622 26.3668 6.51817 26.6181C6.4975 26.9057 6.44077 27.1865 6.39464 27.4149C6.38961 27.4397 6.38471 27.464 6.38 27.4876C6.32811 27.747 6.29359 27.9455 6.29095 28.1336C6.2878 28.3576 6.24131 28.5548 6.20694 28.691C6.19788 28.7269 6.1898 28.7582 6.18259 28.7862C6.158 28.8817 6.14349 28.9381 6.13442 29.0015C6.09999 29.2421 6.05612 29.4933 5.98988 29.7494C5.9559 29.8808 5.92071 30.0311 5.88337 30.1904C5.81034 30.5022 5.72912 30.849 5.63268 31.1583C5.61011 31.2307 5.58953 31.3099 5.56396 31.4099L5.55997 31.4255C5.53674 31.5164 5.50901 31.6249 5.47631 31.7334C5.40751 31.9616 5.29987 32.2509 5.09088 32.5143C4.86901 32.7939 4.53633 33.0556 4.03334 33.0556C3.87465 33.0556 3.69516 33.0269 3.52133 32.9328C3.34484 32.8372 3.23562 32.7072 3.16913 32.6082C3.12255 32.5388 3.07464 32.4458 3.06546 32.428C3.06464 32.4264 3.06413 32.4254 3.06396 32.4251C3.06036 32.4184 3.05776 32.4138 3.05607 32.4109C2.82122 32.1314 2.78492 31.7773 2.77192 31.6282C2.76331 31.5295 2.76064 31.4341 2.75883 31.364L2.75871 31.3596C2.75668 31.2811 2.75572 31.2439 2.7535 31.2175C2.71545 30.7664 2.70203 30.3109 2.70203 29.8693C2.70203 29.4895 2.71391 29.1136 2.72537 28.7509L2.72555 28.7453C2.73719 28.3771 2.74835 28.0222 2.74835 27.667C2.74835 27.2556 2.78568 26.8499 2.81954 26.4818L2.82089 26.4672C2.85615 26.0838 2.8873 25.7396 2.8873 25.4009C2.8873 24.9544 2.9633 24.4871 3.02657 24.1202C3.04805 23.9956 3.06945 23.8744 3.09051 23.7553C3.15017 23.4176 3.20701 23.0959 3.25468 22.7573C3.28187 22.5641 3.28849 22.3635 3.29061 22.1285C3.29098 22.0874 3.2912 22.0445 3.29143 22.0002C3.29244 21.8051 3.29359 21.5825 3.30837 21.3615C3.32377 21.1313 3.35018 20.8997 3.37426 20.6885C3.38074 20.6317 3.38705 20.5763 3.39293 20.5229C3.42188 20.2599 3.44313 20.023 3.44313 19.7889L3.44313 19.725C3.44318 18.5854 3.44322 17.5243 3.30036 16.4604C3.20991 15.7867 3.21068 15.126 3.21141 14.5072C3.21147 14.4525 3.21153 14.3981 3.21153 14.3441C3.21153 14.1806 3.22056 13.9775 3.22869 13.7948C3.23341 13.6886 3.23783 13.5892 3.24 13.5085C3.24709 13.2437 3.23891 13.0359 3.20406 12.8706C3.14633 12.5968 3.14813 12.3288 3.15 12.1381C3.1501 12.128 3.1502 12.1181 3.15029 12.1084C3.15228 11.9095 3.15352 11.7859 3.13678 11.6709C3.08394 11.3076 3.02626 10.8748 3.02626 10.4515C3.02626 10.0487 3.35272 9.72229 3.75542 9.72229Z" fill="#FF3F25"/>
</svg>
