<svg width="10" height="35" viewBox="0 0 10 35" fill="none" xmlns="http://www.w3.org/2000/svg">
<path fill-rule="evenodd" clip-rule="evenodd" d="M4.66864 0.00867035C4.98396 0.0260089 5.30959 0.0670124 5.4964 0.103518C6.30411 0.261353 7.19595 0.723619 7.61402 1.42745C8.00224 2.08103 8.24922 2.7344 8.45501 3.37779C8.72884 4.23396 8.72844 5.03365 8.72806 5.7754C8.72805 5.80284 8.72803 5.83019 8.72803 5.85747C8.72803 6.40823 8.77157 6.9393 8.88209 7.46395C8.95787 7.82371 8.98022 8.16821 8.98926 8.48154C8.99347 8.62759 8.99491 8.7531 8.99628 8.87213C8.99815 9.03513 8.99988 9.186 9.0084 9.36089C9.01702 9.53787 9.02647 9.7171 9.03602 9.8982C9.09441 11.0058 9.15648 12.1834 9.05669 13.3437C8.93648 14.7414 8.93333 16.1503 8.94695 17.5871C8.94905 17.8084 8.95155 18.0306 8.95407 18.2535C8.96775 19.4681 8.98169 20.7044 8.93161 21.9374C8.8757 23.3139 8.80532 24.7075 8.67076 26.0981C8.61021 26.7239 8.52625 27.3659 8.44422 27.9932C8.39317 28.3835 8.34287 28.7682 8.29941 29.1397C8.26889 29.4007 8.20521 29.6616 8.15419 29.8707C8.14478 29.9093 8.1358 29.9461 8.12754 29.9808C8.06879 30.2276 8.03462 30.4096 8.03462 30.5764C8.03462 30.652 8.03695 30.7429 8.03953 30.8432C8.04625 31.1045 8.05461 31.4298 8.02759 31.7163C7.94865 32.5531 7.56918 33.2661 7.00324 33.8969C6.45859 34.504 5.74874 35 4.60728 35C3.80491 35 2.86398 34.9789 2.0047 34.5801C1.70098 34.4392 1.43104 34.2145 1.22739 33.997C1.0285 33.7847 0.831876 33.5139 0.730549 33.2367C0.705122 33.1672 0.665703 33.0925 0.59361 32.9609L0.586364 32.9477C0.523919 32.8338 0.433325 32.6686 0.367285 32.4853C0.196325 32.0107 0.147516 31.5449 0.147516 31.106C0.147516 30.7347 0.131008 30.3603 0.113555 29.9679L0.113155 29.9589C0.0960622 29.5746 0.0781744 29.1724 0.0781744 28.769C0.0781744 28.561 0.0969886 28.2986 0.113276 28.0714C0.121948 27.9505 0.129903 27.8395 0.133921 27.7521C0.148347 27.4381 0.134071 27.2079 0.0772935 27.0292C-0.0440342 26.6475 0.00327837 26.2819 0.0461481 26.037C0.066802 25.919 0.0849065 25.8306 0.0998453 25.7577C0.123748 25.6409 0.139546 25.5638 0.144716 25.4683C0.152897 25.3172 0.158007 25.1516 0.163395 24.9769C0.177012 24.5354 0.192404 24.0364 0.263627 23.5701C0.295455 23.3618 0.329601 23.1721 0.361603 22.9943C0.433294 22.5961 0.494223 22.2576 0.494223 21.9029C0.494223 21.5716 0.558742 21.2595 0.607528 21.0235L0.609693 21.013C0.663634 20.752 0.699249 20.5744 0.702367 20.4038C0.708276 20.0805 0.722539 19.7574 0.736316 19.4454C0.738415 19.3978 0.740502 19.3506 0.742548 19.3036C0.758209 18.9437 0.771588 18.5972 0.771588 18.2538C0.771588 17.9278 0.740719 17.5993 0.705508 17.2308L0.704181 17.217C0.700423 17.1776 0.69662 17.1379 0.692829 17.0976C0.611356 16.981 0.563564 16.8392 0.563564 16.6862V14.1753C0.563564 13.8837 0.604284 13.6002 0.637126 13.3716L0.640192 13.3502C0.676046 13.1002 0.702247 12.9082 0.702247 12.7235C0.702247 12.2578 0.620129 11.7828 0.526357 11.2403C0.519173 11.1988 0.511921 11.1568 0.504632 11.1145C0.34967 10.2136 0.216857 9.25075 0.216857 8.29195C0.216857 7.91238 0.277104 7.54506 0.326869 7.24166L0.330339 7.22049C0.384045 6.89283 0.424881 6.63418 0.424881 6.38441C0.424881 6.24314 0.420703 6.09856 0.416061 5.94109L0.415834 5.93338C0.411358 5.7816 0.406526 5.61772 0.406307 5.45249C0.405863 5.11672 0.423843 4.74214 0.51313 4.36048C0.62087 3.89993 0.863243 3.49254 1.0528 3.18241C1.07553 3.14522 1.09761 3.10925 1.11901 3.07437C1.29707 2.78423 1.42883 2.56953 1.50984 2.35099C1.85288 1.42556 2.42799 0.629764 3.63504 0.1138C3.82641 0.0319939 4.0398 0.0124621 4.17713 0.00499179C4.33727 -0.00371894 4.50928 -9.21609e-05 4.66864 0.00867035ZM2.00192 15.7611C2.04638 15.8546 2.07126 15.9592 2.07126 16.0696C2.07126 16.3967 2.10214 16.7257 2.13734 17.094L2.13879 17.1092C2.17255 17.4624 2.20994 17.8536 2.20994 18.2538C2.20994 18.6313 2.19525 19.0052 2.17954 19.3661C2.17743 19.4146 2.17531 19.4627 2.1732 19.5106C2.15938 19.824 2.14603 20.1268 2.14048 20.4301C2.13477 20.7425 2.07285 21.041 2.0257 21.2683C2.02318 21.2804 2.02071 21.2924 2.01828 21.3041C1.96557 21.5592 1.93258 21.7359 1.93258 21.9029C1.93258 22.395 1.83621 22.9308 1.75624 23.3753C1.72938 23.5246 1.70438 23.6637 1.68549 23.7873C1.62784 24.1647 1.61718 24.5199 1.60519 24.9196C1.59932 25.1151 1.59314 25.3214 1.58097 25.5461C1.57264 25.6999 1.54808 25.8454 1.52548 25.9643C1.51374 26.0261 1.50404 26.0739 1.49525 26.1173C1.48381 26.1737 1.4739 26.2225 1.46297 26.285C1.42835 26.4827 1.43699 26.5587 1.44807 26.5935C1.58416 27.0217 1.58721 27.46 1.57076 27.8181C1.56249 27.998 1.55137 28.1428 1.54135 28.2732C1.52796 28.4476 1.51653 28.5964 1.51653 28.769C1.51653 29.1382 1.53303 29.5115 1.55049 29.904L1.55076 29.9101C1.5679 30.2954 1.58587 30.6995 1.58587 31.106C1.58587 31.4383 1.62307 31.7273 1.72051 31.9978C1.74486 32.0654 1.78343 32.1391 1.85506 32.2698L1.86376 32.2857C1.92575 32.3987 2.01542 32.5622 2.08148 32.7429C2.09182 32.7712 2.15087 32.8789 2.27726 33.0139C2.39889 33.1437 2.52384 33.2353 2.61021 33.2754C3.14786 33.5249 3.78955 33.5616 4.60728 33.5616C5.23196 33.5616 5.57903 33.3305 5.93263 32.9364C6.34817 32.4732 6.55251 32.0379 6.59559 31.5812C6.61444 31.3814 6.60951 31.2059 6.60347 30.9912C6.60004 30.8694 6.59626 30.735 6.59626 30.5764C6.59626 30.228 6.66711 29.9047 6.72827 29.6477C6.74002 29.5984 6.75131 29.5518 6.76207 29.5073C6.81258 29.2987 6.85143 29.1382 6.87079 28.9726C6.91947 28.5565 6.97197 28.1563 7.02372 27.7618C7.10272 27.1596 7.17995 26.5708 7.23909 25.9596C7.36968 24.61 7.43881 23.2487 7.49444 21.879C7.54287 20.6867 7.52949 19.4932 7.51586 18.2779C7.51334 18.053 7.51081 17.8273 7.50866 17.6007C7.495 16.1598 7.49708 14.6918 7.62362 13.2205C7.71416 12.1678 7.65842 11.1015 7.60022 9.98832C7.59058 9.80386 7.58087 9.6181 7.57175 9.43091C7.56263 9.24378 7.55977 9.03185 7.55718 8.83914C7.55562 8.72372 7.55416 8.61519 7.5515 8.52302C7.54346 8.24422 7.52462 7.99777 7.47462 7.76043C7.33921 7.11758 7.28968 6.48419 7.28968 5.85747C7.28968 5.0568 7.28958 4.45555 7.08502 3.81597C6.89457 3.22051 6.68663 2.68264 6.37738 2.16201C6.24426 1.9379 5.79925 1.62826 5.22055 1.51517C5.11077 1.49372 4.85239 1.4593 4.58967 1.44486C4.46001 1.43773 4.34449 1.43637 4.25526 1.44122C4.20988 1.44369 4.18324 1.44722 4.17125 1.44899C3.40912 1.78258 3.08642 2.23612 2.85852 2.85092C2.72447 3.21255 2.51187 3.55682 2.34433 3.82812C2.32201 3.86427 2.30049 3.89912 2.28006 3.93254C2.08397 4.25335 1.96229 4.48031 1.91367 4.68812C1.86097 4.9134 1.84428 5.16164 1.84466 5.45058C1.84485 5.5949 1.84915 5.74109 1.85379 5.8987L1.85384 5.90045C1.85837 6.05402 1.86324 6.21908 1.86324 6.38441C1.86324 6.76137 1.80323 7.12716 1.75361 7.42962L1.74976 7.45315C1.69613 7.78032 1.65521 8.0402 1.65521 8.29195C1.65521 9.12724 1.77149 9.99464 1.92217 10.8706C1.93031 10.918 1.93868 10.9661 1.94716 11.0149C2.03714 11.5324 2.1406 12.1276 2.1406 12.7235C2.1406 13.0206 2.09945 13.3073 2.06633 13.538L2.06397 13.5544C2.02795 13.8056 2.00192 13.9949 2.00192 14.1753V15.7611Z" fill="#72B1FB"/>
<path fill-rule="evenodd" clip-rule="evenodd" d="M6.81615 21.4131C6.92757 21.5001 7.10442 21.686 7.1261 21.9835C7.13038 22.0423 7.13773 22.099 7.14793 22.1778C7.1516 22.2061 7.15564 22.2373 7.16004 22.2724C7.17485 22.3908 7.19177 22.5425 7.19177 22.7056C7.19177 23.0775 7.13679 23.4378 7.09092 23.7383L7.0879 23.7581C7.03862 24.0812 7.00048 24.34 7.00048 24.5907C7.00048 25.266 6.88189 25.9506 6.77783 26.5513C6.76326 26.6354 6.74897 26.7179 6.73534 26.7985C6.6864 27.0877 6.66834 27.3865 6.64893 27.73C6.64842 27.7391 6.64791 27.7482 6.64739 27.7573C6.62913 28.0812 6.60847 28.4474 6.5482 28.815C6.52297 28.9689 6.51767 29.1388 6.51511 29.3612C6.51489 29.3803 6.51469 29.3998 6.51449 29.4199C6.51252 29.6156 6.51011 29.856 6.48177 30.0937C6.43785 30.462 6.27372 30.7883 6.16865 30.9972L6.16395 31.0066C6.03842 31.2562 5.97484 31.3826 5.94888 31.4991C5.93924 31.5424 5.93369 31.5796 5.92503 31.6375C5.92044 31.6682 5.91498 31.7048 5.90756 31.7513C5.89011 31.8607 5.86175 32.0203 5.79949 32.1839C5.73399 32.3561 5.62659 32.5458 5.44422 32.7089C5.2618 32.8721 5.04202 32.9751 4.80186 33.0314C4.35444 33.1364 3.82441 33.0682 3.46292 32.9231C2.55884 32.5603 2.32793 31.7116 2.2746 31.0971C2.24703 30.7794 2.25942 30.4632 2.2752 30.2011C2.28071 30.1094 2.28626 30.0282 2.29125 29.955C2.30197 29.7979 2.31016 29.6777 2.31016 29.571C2.31016 29.3175 2.33102 29.0608 2.34909 28.8384C2.35285 28.7921 2.35648 28.7474 2.35978 28.7044C2.38023 28.4387 2.39093 28.2156 2.37295 28.0031C2.36541 27.9141 2.341 27.8207 2.29427 27.6419L2.29145 27.6311C2.24987 27.472 2.18721 27.2316 2.18274 26.9689C2.18026 26.8236 2.16197 26.67 2.1351 26.4838C2.13031 26.4507 2.12514 26.4158 2.11975 26.3795C2.09695 26.2259 2.07044 26.0473 2.05449 25.8709C2.04371 25.7517 2.02661 25.6404 2.00591 25.5056C1.99923 25.4621 1.99217 25.4161 1.98483 25.3667C1.95682 25.178 1.92758 24.9536 1.92758 24.7096C1.92758 24.6386 1.92567 24.5542 1.92356 24.4614C1.91809 24.2199 1.91134 23.9218 1.93368 23.6577C1.96021 23.3443 2.02808 23.0319 2.08426 22.7734C2.09672 22.716 2.1086 22.6613 2.11933 22.6099C2.11931 22.6098 2.12058 22.6026 2.12348 22.5827C2.12418 22.5778 2.12544 22.569 2.12696 22.5583C2.12988 22.5377 2.13379 22.5103 2.13664 22.491C2.14733 22.4189 2.16392 22.3157 2.19142 22.208C2.21732 22.1065 2.26296 21.9593 2.34998 21.8169C2.37716 21.7725 2.41281 21.7216 2.45817 21.6702C2.53495 21.3556 2.81864 21.1221 3.15687 21.1221C3.22136 21.1221 3.33638 21.1192 3.49459 21.1152C3.59348 21.1127 3.70924 21.1098 3.84008 21.1069C4.16733 21.0996 4.56637 21.0931 4.95432 21.0972C5.33617 21.1012 5.73208 21.1155 6.04408 21.1542C6.1939 21.1728 6.36649 21.2018 6.51875 21.2551C6.59242 21.2808 6.70645 21.3274 6.81615 21.4131ZM3.57285 22.6204C3.56841 22.6441 3.56402 22.6711 3.55947 22.7018C3.55655 22.7215 3.55476 22.7342 3.55281 22.7481C3.55118 22.7596 3.54944 22.772 3.54684 22.7898C3.54296 22.8165 3.53664 22.8591 3.52796 22.9008C3.5118 22.9784 3.49618 23.0508 3.48139 23.1194C3.42763 23.3687 3.38485 23.5671 3.36692 23.779C3.35115 23.9653 3.35521 24.1302 3.36015 24.3306C3.36291 24.4425 3.36594 24.5655 3.36594 24.7096C3.36594 24.8439 3.38197 24.9828 3.40759 25.1554C3.41243 25.1881 3.41783 25.2231 3.42352 25.26C3.44548 25.4024 3.47176 25.5729 3.487 25.7413C3.49889 25.8728 3.51768 25.9999 3.53974 26.149C3.54583 26.1903 3.55218 26.2332 3.5587 26.2783C3.58698 26.4743 3.61678 26.7031 3.62089 26.9444C3.62206 27.0134 3.63921 27.0996 3.68307 27.2674C3.68651 27.2806 3.69021 27.2946 3.6941 27.3093C3.73183 27.4519 3.78764 27.6628 3.80618 27.8818C3.83458 28.2174 3.81517 28.5384 3.7939 28.8148C3.78963 28.8703 3.78534 28.9236 3.7812 28.9751C3.76353 29.1947 3.74852 29.3813 3.74852 29.571C3.74852 29.7298 3.73509 29.9268 3.72277 30.1076C3.71849 30.1703 3.71435 30.231 3.71095 30.2875C3.69617 30.5332 3.68943 30.7638 3.70757 30.9727C3.74563 31.4113 3.86542 31.5348 3.99857 31.5882C4.04382 31.6064 4.12951 31.6291 4.23519 31.639C4.33677 31.6486 4.41844 31.6428 4.46677 31.6326C4.47244 31.6088 4.47919 31.5747 4.48718 31.5246C4.49057 31.5034 4.49389 31.4814 4.49765 31.4564L4.49867 31.4495C4.50202 31.4272 4.50578 31.4021 4.5097 31.3771C4.51834 31.322 4.52949 31.2557 4.54493 31.1864C4.61197 30.8854 4.75655 30.6011 4.85323 30.411C4.86342 30.391 4.87308 30.372 4.88206 30.3542C4.99882 30.122 5.04347 30.0078 5.05353 29.9234C5.07216 29.7672 5.07396 29.6041 5.07631 29.3924C5.07648 29.3768 5.07666 29.3609 5.07685 29.3447C5.07935 29.1266 5.08385 28.8565 5.12879 28.5823C5.17624 28.2929 5.19336 27.9942 5.21287 27.6489L5.21316 27.6436C5.23186 27.3126 5.25308 26.937 5.31715 26.5585C5.33192 26.4712 5.34671 26.3852 5.3613 26.3004C5.46693 25.6866 5.56212 25.1333 5.56212 24.5907C5.56212 24.2216 5.61686 23.863 5.66258 23.5635C5.66373 23.556 5.66486 23.5486 5.66599 23.5412C5.7152 23.2185 5.75341 22.9584 5.75341 22.7056C5.75341 22.6643 5.75085 22.62 5.74602 22.5688C5.52916 22.549 5.24863 22.5387 4.93925 22.5355C4.57479 22.5317 4.1941 22.5377 3.8721 22.5449C3.79244 22.5466 3.71467 22.5485 3.64096 22.5504C3.61994 22.5751 3.59719 22.5985 3.57285 22.6204ZM4.50777 31.6206C4.50777 31.6206 4.50761 31.6207 4.50728 31.6208L4.50777 31.6206Z" fill="#72B1FB"/>
</svg>
