<?xml version="1.0" encoding="UTF-8"?>
<svg xmlns="http://www.w3.org/2000/svg" viewBox="0 0 178.29 81.56">
  <defs>
    <style>
      .svg-cloud {
        fill: #FFFBF4;
        stroke: #161616;
        stroke-linecap: round;
        stroke-linejoin: round;
        stroke-width: 6px;
      }
    </style>
  </defs>
  <g>
    <g>
      <path class="svg-cloud" d="M173.85,60.81c-3.08,4.75-10.28,4.4-26.16,4.02-12.78-.3-25.56-.37-38.34-.55-35.04-.5-46.24,5.04-55.31-3.84-1.07-1.05-7.85-7.68-6.52-15.66.95-5.69,5.55-9.18,6.01-9.52,2.13-1.57,4.31-2.33,6.05-2.68-1.94-6.83,4.39-13.42,12.19-14.25,1.48-.2,2.83,0,4.09.45.11-14.3,22.13-18.84,33.13-13.79,5.86,3.04,9.93,6.83,12.13,12.2,7.9-3.27,14.29-.09,17.86,7.78,4.46-1.48,9.36-.87,13.17,1.79,3.82,2.67,5.3,6.53,5.87,9.32,2.98.44,7.66,1.79,11.46,5.76,4.94,5.17,7.63,13.94,4.36,18.97Z"/>
      <path class="svg-cloud" d="M148.21,73.12c-3.53,5.45-11.8,5.05-30.03,4.62-14.67-.34-29.34-.42-44.01-.63-40.22-.57-53.08,5.79-63.49-4.41-1.23-1.2-9.01-8.82-7.48-17.98,1.09-6.53,6.37-10.54,6.9-10.93,2.45-1.8,4.95-2.67,6.95-3.08-2.23-7.84,5.04-15.41,13.99-16.36,1.7-.23,3.25.01,4.7.52.13-16.42,25.4-21.63,38.03-15.83,6.73,3.49,11.4,7.84,13.92,14,9.07-3.75,16.4-.1,20.5,8.93,5.12-1.7,10.75-1,15.12,2.06,4.38,3.06,6.08,7.5,6.74,10.7,3.42.51,8.79,2.05,13.16,6.61,5.67,5.93,8.76,16,5,21.78Z"/>
    </g>
  </g>
</svg>