<svg class="svg-icon" xmlns="http://www.w3.org/2000/svg" viewBox="0 0 58.09 58.68">
    <g class="svg-icon--arrow-circle">
        <path d="M13.28,26.48c.21.09.4.07.63.07.53,0,1.06,0,1.58,0,1,0,1.98-.26,2.97-.41.84-.13,1.68-.23,2.52-.37.41-.07.83-.05,1.25-.05.72,0,1.41.06,2.13.12.66.06,1.34.08,2,.08.37,0,.76.02,1.12.1.38.09.81.03,1.2.03h1.2c.14,0,.28,0,.42,0,.17,0,.19,0,.28-.15.19-.31.41-.85.44-1.23.06-.7-.04-1.41-.07-2.1,0-.24-.16-.44-.2-.67-.04-.2,0-.4-.06-.6-.09-.29-.09-.54-.09-.85v-3.4c0-.14,0-.27,0-.41,0-.09-.04-.29.02-.35.18,0,.29.12.42.22.2.14.41.27.61.41.29.21.62.35.93.53s.63.38.94.57c.5.3.92.7,1.41,1.01.52.33,1.03.65,1.5,1.04.73.6,1.55,1.1,2.24,1.75.36.34.82.58,1.16.95.16.18.35.28.54.42.22.16.43.34.67.48.45.26.82.67,1.24.98.65.5,1.23,1.1,1.8,1.71s1.2,1.05,1.68,1.68c.22.28.4.57.63.82.24.26.42.57.67.82.23.23.4.53.35.87-.03.21-.22.45-.35.61-.37.48-.79.91-1.26,1.29s-.95.79-1.42,1.19c-.52.44-1.14.76-1.71,1.15-.6.42-1.15.89-1.74,1.32-.69.5-1.4.97-2.1,1.46-.25.17-.43.41-.68.58-.27.18-.53.37-.79.57-.17.13-.31.24-.47.38-.27.25-.55.46-.84.69-.39.32-.8.62-1.2.93-.17.13-.37.23-.55.34-.3.19-.53.41-.86.54-.3.11-.57.27-.87.39-.32.13-.64.25-.97.36-.3.1-.54.3-.84.4-.13.05-.33.1-.35.26.1.01.11-.7.11-.68.03-.29.08-.57.16-.86.1-.39.18-.78.26-1.18.07-.35.15-.69.2-1.04.03-.23.14-.45.16-.69.05-.79.04-1.64-.15-2.41-.05-.18-.11-.31-.12-.5,0-.11-.03-.19-.05-.3-.04-.16-.09-.3-.09-.47,0-.41-.14-.81-.13-1.23,0-.27.01-.55,0-.82-.02-.42-.85-.29-1.09-.29-.86,0-1.72-.01-2.57.06-.39.03-.75.09-1.12.15s-.76.05-1.15.07c-.71.04-1.41.2-2.12.3-.98.13-1.96.26-2.94.36-1.69.17-3.41.08-5.11.08-.48,0-.95,0-1.43.05-.2.03-.4.02-.6.02-.32,0-.65,0-.97,0-.16,0-.23.03-.32-.11-.05-.07-.1-.21-.12-.29-.09-.3-.09-.69-.1-1-.02-.74,0-1.49,0-2.24,0-.59.14-1.16.14-1.76,0-.16,0-.32,0-.47,0-.26.07-.5.07-.76,0-.1-.04-.32,0-.41.05-.12.3-.06.42-.06.19,0,.38,0,.56,0,.17,0,.3.06.46.07s.31.06.47.07c.2.01.41,0,.07-.21Z"/>
        <path d="M55.58,29.66c0,2.05.11,4.01-.33,5.93s-.85,3.97-1.71,5.76-2.02,3.5-3.26,5.07-2.69,2.99-4.26,4.25-3.45,1.96-5.27,2.83-3.63,1.42-5.61,1.87-3.81.81-5.87.81-4.03,0-5.95-.44-3.91-1.02-5.7-1.88-3.31-2.23-4.87-3.47-2.95-2.62-4.21-4.19-2.16-3.27-3.03-5.09-1.94-3.49-2.39-5.47-.61-3.92-.61-5.97-.03-4.09.41-6.02,1.48-3.76,2.35-5.55,1.74-3.64,2.98-5.21,2.46-3.29,4.03-4.54,3.74-1.56,5.56-2.43,3.52-1.77,5.51-2.22,3.87-1.2,5.93-1.2,4.14.18,6.06.62,3.66,1.78,5.45,2.65,3.5,1.87,5.06,3.12,2.79,2.77,4.05,4.34,2.74,2.95,3.62,4.77,1.1,3.8,1.55,5.78.53,3.83.53,5.89Z"/>
    </g>
</svg>