<svg class="svg-icon" xmlns="http://www.w3.org/2000/svg" viewBox="0 0 58.09 58.68">
    <g class="svg-icon--arrow-circle">
        <path d="M46.29,26.27c-.23.09-.43.07-.67.07-.56,0-1.12,0-1.69,0-1.07,0-2.11-.28-3.16-.43-.9-.13-1.79-.24-2.68-.4-.44-.08-.89-.05-1.33-.05-.76,0-1.51.06-2.26.13-.7.06-1.42.09-2.13.09-.39,0-.81.02-1.19.11-.4.09-.87.04-1.28.04h-1.28c-.15,0-.3,0-.45,0-.18,0-.2,0-.3-.16-.21-.33-.44-.91-.47-1.31-.06-.74.05-1.5.07-2.23,0-.26.17-.46.21-.71.04-.22,0-.42.06-.64.1-.31.09-.57.09-.9v-2.61c0-.34,0-.68,0-1.02,0-.14,0-.29,0-.43,0-.09.04-.31-.02-.38-.19,0-.3.13-.45.23-.21.15-.44.28-.65.44-.31.23-.66.37-.99.56s-.67.4-1,.6c-.53.32-.98.74-1.5,1.07-.56.35-1.09.69-1.6,1.11-.78.64-1.65,1.18-2.39,1.86-.39.36-.88.62-1.23,1.01-.18.19-.37.3-.58.45-.23.17-.46.37-.71.51-.48.28-.88.71-1.32,1.05-.7.53-1.31,1.17-1.91,1.82s-1.28,1.12-1.79,1.79c-.23.3-.43.61-.67.88-.25.28-.45.61-.71.88-.25.25-.43.57-.37.93.04.22.24.48.38.65.4.51.85.97,1.35,1.38s1.01.85,1.52,1.27c.56.47,1.22.81,1.82,1.22.64.44,1.22.95,1.85,1.4.74.54,1.5,1.04,2.24,1.56.26.18.46.43.73.61.29.2.56.4.85.6.18.13.33.25.5.4.29.27.59.49.89.73.42.34.85.66,1.27.99.19.14.39.24.59.37.32.2.56.44.91.57.32.12.61.29.93.42.34.13.69.27,1.04.38.32.1.57.31.89.42.14.05.35.11.37.28-.11.01-.12-.75-.12-.72-.03-.31-.09-.61-.17-.91-.1-.42-.19-.83-.27-1.26-.07-.37-.16-.73-.22-1.11-.04-.25-.15-.48-.17-.73-.05-.85-.04-1.75.16-2.56.05-.2.12-.33.13-.54,0-.11.03-.21.05-.32.04-.17.09-.32.09-.5,0-.44.15-.86.14-1.31,0-.29-.01-.58,0-.87.02-.45.9-.31,1.17-.31.92,0,1.83-.01,2.74.07.41.04.79.09,1.2.16s.81.06,1.23.08c.76.04,1.5.22,2.25.32,1.04.14,2.09.28,3.13.39,1.8.18,3.64.09,5.45.09.51,0,1.01-.01,1.52.06.21.03.43.02.64.02.34,0,.69,0,1.03,0,.17,0,.24.03.35-.11.05-.07.11-.23.13-.31.1-.32.1-.73.11-1.07.02-.79-.01-1.59,0-2.38,0-.62-.15-1.24-.15-1.87,0-.17,0-.34,0-.5,0-.28-.07-.53-.07-.81,0-.11.05-.34,0-.43-.05-.12-.31-.07-.44-.07-.2,0-.4,0-.6,0-.18,0-.32.06-.49.07s-.33.06-.51.07c-.22.01-.44,0-.08-.22Z"/>
        <path d="M55.58,29.66c0,2.05.11,4.01-.33,5.93s-.85,3.97-1.71,5.76-2.02,3.5-3.26,5.07-2.69,2.99-4.26,4.25-3.45,1.96-5.27,2.83-3.63,1.42-5.61,1.87-3.81.81-5.87.81-4.03,0-5.95-.44-3.91-1.02-5.7-1.88-3.31-2.23-4.87-3.47-2.95-2.62-4.21-4.19-2.16-3.27-3.03-5.09-1.94-3.49-2.39-5.47-.61-3.92-.61-5.97-.03-4.09.41-6.02,1.48-3.76,2.35-5.55,1.74-3.64,2.98-5.21,2.46-3.29,4.03-4.54,3.74-1.56,5.56-2.43,3.52-1.77,5.51-2.22,3.87-1.2,5.93-1.2,4.14.18,6.06.62,3.66,1.78,5.45,2.65,3.5,1.87,5.06,3.12,2.79,2.77,4.05,4.34,2.74,2.95,3.62,4.77,1.1,3.8,1.55,5.78.53,3.83.53,5.89Z"/>
    </g>
</svg>