<svg class="svg-icon" xmlns="http://www.w3.org/2000/svg" viewBox="0 0 43.39 65.06">
    <g class="svg-icon--exit">
        <path class="svg-icon--exit__doorframe"
              d="M4,62.38c-.24-20.04.83-40.56.22-60.58,12.08.41,25.12-.4,36.86-.28.57,18.38-.36,36.86.67,55.27.31,1.78-.17,4.37.15,6.33-12.2,1.03-25.84.11-37.89-.73Z"/>
        <g class="svg-icon--exit__human">
            <path
                    d="M41.13,28.89c-2.37-.12-4.84.26-7.13-.14-1.11-.6-1.91-1.7-2.83-2.58-.82-.92-2.01-1.4-2.78-2.37-.33-.31-.48.16-.65.41-1.35,4.22-2.92,8.48-4.46,12.54h.03c2.11,5.07,5.01,9.79,6.86,14.98,1.29,2.42,4.17,5.66,1.13,7.96-3.85,1.47-4.71-3.31-5.99-5.81-2.08-4.35-4.25-8.69-6.62-12.91h-.03c-.05,1.18-.52,2.31-.65,3.47,0,1.12-.52,2.18-1.58,2.7-2.69.97-5.79.16-8.65.42-.91.24-1.83-.08-2.73-.15-.68.02-1.36,0-1.94-.4-1.86-1.02-2.35-3.94-.23-4.95,3.08-.61,6.68.09,9.85-.51.23-1.97.5-3.96.83-5.93.34-3.17,1.83-6.12,3.23-8.98,1-2.03,1.51-4.27,2.24-6.39-1.1,0-2.21.02-3.28-.05-.75-.15-1.89-.52-2.21.45-1.44,1.76-1.75,4.14-3.17,5.82-.33.33-.49.78-.81,1.14-.89.45-2.29.3-3.18-.11-2.8-2.07-.17-4.53.61-6.86,1.6-1.91,1.94-5.88,4.84-6.11,4.92.13,10.55-1.15,15.19.27,2.59,2.61,5.3,5.28,8,7.8,1.54,1.41,3.93.32,5.88.76-.03,1.76.04,3.83.22,5.55Z"/>
            <path
                    d="M26.23,13.01c1.75.82,3.83.63,5.13-.83,2.88-2.23,1.68-7.89-2.27-8.06-5.28-1.05-7.41,6.48-2.87,8.89Z"/>
        </g>
    </g>
</svg>