<svg class="svg-icon" xmlns="http://www.w3.org/2000/svg" viewBox="0 0 84.99 84.71">
    <g class="svg-icon--gear">
        <path d="M80.93,43.18c-.16-2.15-.27-4.42.06-6.52-2.91-.67-5.87-1.26-8.64-2.34-1.16-2.22-1.68-4.91-3.22-6.9,1.35-2.86,3.62-5.25,4.64-8.32-2.85-2.34-5.78-4.93-8.26-7.56-.01-.02-.01-.03-.04-.05,0-.01-.11-.02-.11-.03-1.65.93-3.4,1.78-4.9,2.94-.87.43-1.96.58-2.59,1.34-1.09-.13-2.08-.51-3-1.11-1.49-.55-2.9-1.13-4.31-1.86-.11-1.8-1.04-3.78-1.61-5.58-.13-1.07-.4-2.16-.86-3.09-3.6-.38-7.6.42-11.25.19-.45,2.88-1.58,5.69-2.32,8.51-2.24,1.03-4.7,1.79-6.93,2.89-2.49-1.59-5.36-2.86-7.88-4.39-.9,1.17-2.63,2.19-3.79,3.38-1.36,1.47-2.81,2.95-4.2,4.36-.08.22-.38.29-.17.55.71,1.73,1.73,3.2,2.82,4.7.49.95,1.03,1.89,1.55,2.8-.08,2.43-2.13,4.26-2.37,6.68-.19.72-1.03.81-1.65.95-1.29.3-2.56.81-3.87,1.07-1.28.42-2.86.44-3.89,1.26.15,2.24-.24,4.44-.11,6.67,0,.97.09,2.59.05,3.58.01.35-.03.83.38.93,2.7.6,5.48,1,8.09,1.96,1.97.25,3,5.55,3.53,7.39-.75,1.35-1.68,3.07-2.49,4.56-.75,1.07-1.64,2.1-1.9,3.43.34.54.73,1.1,1.19,1.57,1.48,1.48,3.23,2.68,4.45,4.39,1.82,1.86,1.88,2.69,4.16.78,2.25-.74,3.93-2.37,6.02-3.33,1.86.74,3.85,1.41,5.68,2.28.38.16.75.32,1.13.47.37.42.45,1.09.71,1.59.64,2.46,1.12,5.05,1.94,7.39,2.14-.17,9.13-.04,11.32-.11.3-1.05.58-2.25.93-3.32.54-1.86,1.04-3.74,1.58-5.6,1.2-.79,2.75-.85,4.01-1.55.98-.35,2.03-1.4,3.07-1.11,2.38,1.29,5.19,2.5,7.29,4.32,1.77-.02,2.62-1.94,3.79-3.01,1.46-1.72,3.72-2.94,4.89-4.87-1.51-2.62-3.14-5.24-4.61-7.91.27-2.51,1.97-5.05,3.05-7.33,2.65-.96,5.77-1.38,8.59-2.16.12-1.6.09-3.26.05-4.88ZM57.4,42.86c-.32,11.47-13.22,17.66-22.84,12.14-5.71-4.03-8.25-11.74-5.79-18.29,1.96-3.67,5-7.19,9.29-8.12,1.73-.73,3.45-1.17,5.32-.73,1.92.1,3.99.47,5.7,1.33,5.39,2.07,8.33,8.15,8.32,13.67Z"/>
    </g>
</svg>