<?xml version="1.0" encoding="UTF-8"?>
<svg xmlns="http://www.w3.org/2000/svg" viewBox="0 0 56.34 56.99">
  <defs>
    <style>
      .svg-raindrop {
      fill: #FFFBF4;
      stroke: #72B1FB;
      stroke-linecap: round;
      stroke-linejoin: round;
      stroke-width: 6px;
      }
    </style>
  </defs>
  <g>
    <g class="svg-raindrop">
        <path d="M23.8,3c-1.46.42-20.35,6-20.78,14.49-.03.52-.19,3.78,1.9,5.5,2.3,1.89,5.95.76,7.06.41,8.9-2.76,11.52-18.46,11.83-20.4Z"/>
        <path d="M53.34,3c-1.46.42-20.35,6-20.78,14.49-.03.52-.19,3.78,1.9,5.5,2.3,1.89,5.95.76,7.06.41,8.9-2.76,11.52-18.46,11.83-20.4Z"/>
        <path d="M23.8,32.94c-1.46.42-20.35,6-20.78,14.49-.03.52-.19,3.78,1.9,5.5,2.3,1.89,5.95.76,7.06.41,8.9-2.76,11.52-18.46,11.83-20.4Z"/>
        <path d="M53.34,32.94c-1.46.42-20.35,6-20.78,14.49-.03.52-.19,3.78,1.9,5.5,2.3,1.89,5.95.76,7.06.41,8.9-2.76,11.52-18.46,11.83-20.4Z"/>
    </g>
  </g>
</svg>