<?xml version="1.0" encoding="UTF-8"?>
<svg class="svg-icon--star__filled" xmlns="http://www.w3.org/2000/svg" version="1.1"
     viewBox="0 0 103.5 105.4">
    <path class="fill"
          d="M64.1,100.4c-6.1,0-10.8-6.4-15.7-13.2l-.2-.3c-1.2-1.7-2.7-3.7-3.8-5-1-1.1-2.3-1.7-3.8-1.7s-.6,0-.9,0c-2.1.4-4.7,1.7-7.8,3.4-3,1.7-6.1,3.4-9.5,4.2-.2,0-.5.1-.7.2-1.2.5-2.4.7-3.7.7-3.3,0-6.5-1.8-8.1-4.6-1.7-2.8-1.7-6.3,0-9.2v-.2c1-1.5,1.9-3.1,2.8-4.7l.4-.7c2.2-3.8,4.4-7.6,6.9-11.1,1.3-1.8,1.2-4.2-.2-6-1.6-2-4.1-4.6-5.6-6.2-6.5-6.8-10.4-11.4-8.8-16.7.9-3.2,3.6-5.3,7.9-6.4h.6c0-.1.6-.1.6-.1h.2c3.7,0,7.7,1.5,11.9,3.1h.3c2.3,1,5.2,2.1,7.5,2.5.3,0,.7,0,1,0,1.6,0,3.1-.7,4-2,2.3-3.2,4.5-6.6,6.6-10l.5-.8c1.6-2.5,3.2-5.2,4.9-7.6l.6-.9.9-.6c1.9-1.2,3.9-1.8,5.7-1.8s4.5,1,6.1,2.8c3.5,4.1,2.9,10.8,2.6,12.8,0,.1,0,.3,0,.4-.2,3.7.2,7.4.5,11.4,0,0,0,.7,0,.7.1,2,1.4,3.6,3.3,4.3,2.2.8,5.5,1.4,9.1,2h.1c4.5.8,9.2,1.6,12.9,3.4.1,0,.2.1.4.2,3.1,1.5,5.1,5,5,8.7-.1,3.4-2.1,6.2-5.1,7.3l-5.6,2.1c-7.2,2.7-11.6,4.4-13.8,5.8-1.2.8-2.1,2.2-2.2,3.7-.2,1.8,0,4.8.3,9.2v1c.2,2.6.5,5.9.6,9.6.1,3.1-1.2,6.1-3.5,7.9-1.5,1.2-3.2,1.8-5.1,1.8Z"/>
    <path class="stroke"
          d="M58.6,10c.9,0,1.7.3,2.3,1.1,1.6,1.9,1.9,5.8,1.4,8.9,0,.3,0,.6,0,.9-.2,4,.2,8.1.5,12.1,0,.2,0,.3,0,.5v.2c.3,3.9,2.9,7.3,6.5,8.6,2.6,1,6.2,1.6,9.9,2.3h.1c4.3.8,8.3,1.5,11.3,2.9.2.1.4.2.6.3,1.3.6,2.2,2.3,2.2,4,0,1.3-.8,2.4-1.8,2.8,0,0,0,0,0,0l-2.4.9c-1,.4-1.9.7-2.8,1h-.4c-7.7,3-12.2,4.7-14.9,6.5-2.5,1.7-4.1,4.3-4.4,7.3-.2,2.2,0,5.3.3,10.1v.2s0,.8,0,.8c.2,2.7.4,5.8.5,9.5,0,1.5-.5,3-1.6,3.8-.6.5-1.3.7-2,.7-3.6,0-7.9-5.9-11.7-11.2l-.2-.3c-1.6-2.1-3-4-4.1-5.3-1.9-2.2-4.7-3.4-7.5-3.4s-1.1,0-1.7.1c-2.8.5-5.8,2-9.4,4-2.7,1.5-5.6,3-8.3,3.7-.5.1-1,.3-1.4.5-.6.2-1.2.4-1.8.4-1.6,0-3.1-.8-3.8-2.2-.8-1.3-.7-2.8,0-4.2h0s0,0,0,0c.9-1.6,1.8-3.1,2.8-4.7l.4-.7h0c2.1-3.7,4.2-7.4,6.6-10.7,2.6-3.6,2.4-8.5-.3-12-1.6-2-3.8-4.3-5.9-6.5-5.1-5.4-8.4-9.1-7.6-11.8.1-.5.6-2,4.3-2.9h0c2.8,0,6.4,1.3,10.2,2.8h.1s.2.1.2.1c2.5.9,5.6,2.1,8.2,2.6.7.1,1.3.2,2,.2,3.1,0,6.1-1.5,8-4.1,2.4-3.3,4.7-6.8,6.8-10.3l.3-.5.2-.3c1.6-2.5,3.2-5.1,4.8-7.5h0c1.1-.7,2.2-1.1,3.1-1.1M58.6,0c-2.8,0-5.5.8-8.3,2.5l-1.8,1.1-1.2,1.8c-1.8,2.7-3.6,5.4-5.2,8.1-2.2,3.4-4.4,7-6.7,10.2-1.9-.4-4.7-1.5-6.9-2.3-4.5-1.7-9.1-3.4-13.8-3.4h-1.4s-1.1.3-1.1.3c-7.7,1.9-10.5,6.4-11.5,9.8-2.5,8.5,3.9,15.1,10,21.5,1.5,1.6,3.8,4,5.2,5.8-2.7,3.8-4.9,7.7-7.1,11.5-1.1,1.8-2.1,3.6-3.1,5.3v.2c-.1,0-.2.2-.2.2-2.5,4.6-2.5,9.9,0,14.2,2.6,4.4,7.4,7.1,12.5,7.1s3.8-.4,5.6-1.1c4-1,7.6-2.9,10.8-4.6,2-1.1,4.8-2.6,6.3-2.9,1,1.1,2.6,3.4,3.8,4.9,5.5,7.5,11.1,15.3,19.8,15.3s5.8-1,8.2-2.9c3.6-2.8,5.6-7.3,5.4-12.1-.2-4.2-.4-7.7-.6-10.6-.2-3.3-.5-7-.3-8.6,1.8-1.2,7.4-3.3,13.2-5.5,1.6-.6,3.3-1.2,5.2-1.9,4.9-1.8,8.2-6.4,8.4-11.9.2-5.7-2.9-11-7.8-13.4h0c-4.4-2.3-9.5-3.2-14.5-4-2.5-.4-6.3-1.1-8.3-1.8,0-.3,0-.5,0-.8-.4-3.8-.7-7.4-.5-10.7.4-3.1,1-11.2-3.7-16.7C66,1.6,62.5,0,58.6,0h0Z"/>
</svg>