<?xml version="1.0" encoding="UTF-8"?>
<svg id="Layer_2" data-name="Layer 2" xmlns="http://www.w3.org/2000/svg" viewBox="0 0 103.52 105.39">
  <defs>
    <style>
      .cls-1 {
        fill: #ffa825;
        stroke-width: 0px;
      }
    </style>
  </defs>
  <g id="Layer_1-2" data-name="Layer 1">
    <path class="cls-1" d="M58.61,10c3.89,0,4.31,6.55,3.7,10.31-.32,5.28.38,10.63.81,15.9,1.79,9,19.95,7.09,28.11,11.46,2.57,1.11,3.32,5.86.41,6.88-29.83,11.25-25.1,7.54-23.96,36.31.06,1.45-.49,2.91-1.63,3.81-.64.5-1.31.73-2.01.73-5.98,0-13.96-16.53-18.57-19.08-1.54-.81-3.08-1.15-4.62-1.15-6.92,0-13.8,6.82-20.59,8.03-.77.44-1.58.64-2.35.64-3.06,0-5.61-3.14-3.78-6.45,3.64-5.98,6.9-12.36,11.08-17.88,9.63-8.68-27.57-27.41-10.77-31.5.04,0,.09,0,.13,0,5.89,0,15.19,5.84,21.84,5.84,2.15,0,4.01-.61,5.4-2.22,5.05-6.41,9.19-14.02,13.67-20.56,1.22-.74,2.25-1.06,3.11-1.06M58.61,0c-2.76,0-5.55.84-8.29,2.51l-1.85,1.12-1.22,1.78c-1.82,2.65-3.56,5.43-5.25,8.12-2.17,3.45-4.39,7.01-6.72,10.17-1.88-.38-4.71-1.45-6.9-2.27-4.49-1.68-9.13-3.43-13.8-3.43h-.28s-1.12.02-1.12.02l-1.09.27c-7.72,1.88-10.54,6.37-11.54,9.81-2.47,8.46,3.88,15.1,10.03,21.52,1.54,1.61,3.82,4,5.24,5.8-2.66,3.77-4.92,7.69-7.12,11.5-1.06,1.83-2.06,3.57-3.09,5.27l-.11.18-.1.18c-2.51,4.55-2.49,9.86.08,14.2,2.58,4.37,7.35,7.08,12.45,7.08,1.9,0,3.79-.38,5.56-1.1,4.04-.98,7.59-2.92,10.76-4.65,1.96-1.07,4.84-2.64,6.28-2.89,1.01,1.15,2.62,3.37,3.76,4.93,5.46,7.51,11.12,15.27,19.77,15.27,2.98,0,5.81-.99,8.2-2.87,3.59-2.83,5.62-7.33,5.43-12.06-.16-4.17-.41-7.72-.6-10.58-.22-3.3-.47-6.98-.31-8.57,1.85-1.23,7.37-3.28,13.18-5.45,1.59-.59,3.31-1.24,5.16-1.93,4.92-1.8,8.21-6.43,8.4-11.85.2-5.72-2.94-11.03-7.84-13.38-4.37-2.26-9.51-3.15-14.49-4.01-2.47-.43-6.3-1.09-8.31-1.83-.02-.27-.05-.53-.07-.8-.35-3.81-.68-7.41-.52-10.74.43-3.13.95-11.2-3.74-16.7-2.53-2.97-6.05-4.6-9.92-4.6h0Z"/>
  </g>
</svg>