<svg class="svg-icon" xmlns="http://www.w3.org/2000/svg" viewBox="0 0 102.22 57.98">
    <defs>
        <style>
            .svg-sun {
            fill: #FFFBF4;
            stroke: #FFA825;
            stroke-linecap: round;
            stroke-linejoin: round;
            stroke-width: 6px;
            }
        </style>
    </defs>
    <g>
        <g class="svg-icon--sun sunrise">
            <g class="rays">
                <path d="M52.85,3l-.44,17.02h.09c.64-5.59.37-11.36.35-17.02Z"/>
                <path d="M89.18,14.45l-14.18,13.31c4.67-4.2,10.06-8.47,14.18-13.31Z"/>
                <path d="M82.31,46.64l9.99.52c-3.31-.32-6.61-.7-9.99-.52Z"/>
                <path d="M92.3,47.15c2.29.22,4.59.41,6.92.36l-6.92-.36Z"/>
                <path d="M27.55,26.78l-13.96-12.76c.05.15.12.22.22.33,4.41,4.19,8.94,8.57,13.75,12.43Z"/>
                <path d="M20.89,47.84l-13.92-.42c4.64.26,9.27.81,13.92.42Z"/>
                <path d="M6.97,47.41c-1.32-.07-2.65-.13-3.97-.12l3.97.12Z"/>
            </g>
            <path class="core"
                  d="M70.49,54.98h-36.77c-2.41-4.71-2.39-10.59.94-16.56,1.84-4.65,5.68-7.25,10.43-8.31,6.38-2.01,13.46-.61,18.41,3.91,5.22,5.36,9.91,13.62,6.99,20.96Z"/>
        </g>
    </g>
</svg>